<?xml version="1.0" standalone="no"?>
<!DOCTYPE svg PUBLIC "-//W3C//DTD SVG 20010904//EN"
 "http://www.w3.org/TR/2001/REC-SVG-20010904/DTD/svg10.dtd">
<svg version="1.0" xmlns="http://www.w3.org/2000/svg"
 width="2000.000000pt" height="2000.000000pt" viewBox="0 0 2000.000000 2000.000000"
 preserveAspectRatio="xMidYMid meet">
<metadata>
Created by potrace 1.11, written by Peter Selinger 2001-2013
</metadata>
<g transform="translate(0.000000,2000.000000) scale(0.100000,-0.100000)"
fill="#000000" stroke="none">
<path d="M9390 19177 c-14 -7 -45 -28 -69 -45 -24 -18 -52 -32 -63 -32 -10 0
-18 -4 -18 -10 0 -5 -8 -10 -17 -10 -10 0 -33 -9 -50 -20 -18 -11 -33 -17 -33
-14 0 4 -7 1 -15 -6 -19 -16 -191 -16 -211 1 -8 6 -14 9 -14 5 0 -10 -36 29
-43 47 -4 11 -18 17 -41 17 -20 0 -36 6 -39 14 -6 14 -60 17 -82 5 -5 -3 -36
-5 -68 -5 -32 1 -61 -2 -63 -6 -3 -4 -31 -8 -63 -8 -32 0 -61 -3 -65 -7 -4 -4
-24 -8 -44 -10 -47 -2 -94 -9 -157 -23 -27 -6 -62 -12 -77 -12 -16 -1 -28 -5
-28 -9 0 -4 -14 -7 -32 -7 -18 1 -33 -3 -35 -9 -2 -6 -14 -8 -27 -6 -13 3 -27
0 -30 -6 -4 -5 -13 -8 -21 -4 -8 3 -15 0 -15 -7 0 -7 -8 -10 -20 -7 -10 3 -27
-1 -37 -8 -9 -7 -23 -11 -30 -8 -7 3 -13 1 -13 -4 0 -5 -6 -10 -12 -11 -45 -6
-58 -10 -83 -26 -14 -10 -33 -15 -41 -12 -8 3 -14 2 -14 -3 0 -7 -15 -14 -50
-25 -27 -8 -70 -30 -70 -36 0 -4 -15 -6 -32 -4 -18 3 -57 6 -86 9 -29 2 -56 7
-61 9 -4 3 -19 -1 -32 -8 -14 -7 -36 -12 -49 -11 -14 2 -29 0 -35 -3 -5 -4
-14 -7 -20 -8 -5 -1 -30 -8 -55 -15 -25 -7 -48 -12 -52 -11 -5 1 -8 -2 -8 -8
0 -5 -4 -10 -9 -10 -5 0 -22 -5 -38 -12 -15 -6 -31 -11 -35 -10 -5 1 -8 -2 -8
-8 0 -5 -7 -10 -16 -10 -14 0 -71 -27 -84 -40 -11 -11 -110 -60 -110 -54 0 3
-7 -2 -16 -10 -8 -9 -22 -16 -30 -16 -8 0 -14 -4 -14 -8 0 -4 -30 -8 -67 -9
-76 -1 -124 -16 -166 -53 -16 -14 -32 -25 -35 -26 -36 -6 -73 -18 -78 -25 -2
-4 -11 -6 -19 -2 -8 3 -15 0 -15 -5 0 -6 -16 -14 -35 -18 -19 -3 -35 -10 -35
-16 0 -5 -6 -8 -12 -7 -12 2 -42 -8 -88 -28 -8 -4 -19 -8 -25 -8 -5 -1 -28
-10 -50 -20 -22 -11 -42 -19 -45 -20 -34 -10 -225 -99 -231 -108 -3 -5 -9 -8
-13 -8 -7 2 -153 -70 -231 -114 -27 -15 -66 -36 -85 -46 -52 -28 -74 -43 -82
-54 -4 -5 -8 -7 -8 -2 0 8 -83 -44 -88 -55 -2 -5 -8 -8 -14 -8 -6 0 -43 -21
-82 -47 -39 -27 -79 -51 -88 -55 -10 -4 -18 -12 -18 -18 0 -6 -5 -8 -10 -5 -6
3 -13 -1 -16 -9 -3 -9 -11 -16 -16 -16 -5 0 -28 -15 -51 -34 -23 -19 -45 -34
-49 -33 -3 1 -20 -10 -37 -25 -17 -16 -37 -28 -45 -28 -8 0 -16 -7 -20 -15 -3
-8 -12 -15 -19 -15 -12 0 -25 -8 -73 -49 -7 -5 -14 -7 -18 -4 -3 3 -8 -2 -12
-11 -3 -9 -12 -16 -20 -16 -8 0 -14 -5 -14 -11 0 -5 -4 -7 -10 -4 -5 3 -10 2
-10 -3 0 -5 -13 -15 -30 -22 -16 -7 -30 -16 -30 -21 0 -5 -7 -9 -15 -9 -8 0
-15 -4 -15 -10 0 -5 -4 -10 -10 -10 -12 0 -85 -54 -167 -126 -24 -20 -43 -33
-43 -30 0 4 -11 -3 -24 -16 -24 -24 -32 -30 -105 -88 -25 -19 -55 -44 -67 -55
-41 -39 -73 -63 -77 -59 -2 2 -12 -5 -22 -16 -10 -11 -24 -20 -32 -20 -7 0
-16 -7 -19 -15 -4 -8 -12 -15 -19 -15 -7 0 -15 -3 -17 -7 -3 -9 -64 -53 -73
-53 -3 0 -14 -8 -24 -17 -11 -10 -35 -29 -53 -43 -60 -45 -206 -200 -190 -200
4 0 0 -6 -9 -13 -9 -7 -17 -15 -17 -20 -5 -27 -44 -81 -98 -136 -35 -35 -64
-67 -64 -71 0 -3 -29 -36 -65 -72 -36 -37 -65 -64 -65 -61 0 3 -8 -5 -19 -18
-10 -13 -38 -45 -62 -70 -105 -110 -159 -170 -159 -175 0 -4 -47 -54 -105
-113 -57 -58 -119 -124 -137 -146 -48 -58 -71 -85 -86 -101 -7 -8 -11 -14 -7
-14 3 0 -5 -12 -19 -27 -14 -15 -23 -30 -20 -35 3 -4 1 -8 -3 -8 -5 0 -17 -16
-27 -35 -11 -19 -23 -35 -27 -35 -5 0 -6 -7 -3 -15 4 -8 1 -15 -5 -15 -6 0
-10 -3 -9 -7 0 -5 -11 -34 -25 -66 -15 -32 -27 -64 -27 -72 0 -7 -4 -16 -9
-19 -5 -4 -8 -17 -6 -31 1 -14 -1 -25 -5 -25 -4 0 -7 -15 -8 -32 0 -18 -5 -34
-11 -36 -22 -7 -61 -44 -56 -53 4 -5 2 -9 -2 -9 -5 0 -10 -12 -11 -26 -2 -26
-12 -39 -49 -65 -29 -20 -126 -109 -118 -109 3 0 -13 -16 -35 -36 -22 -20 -40
-41 -40 -46 0 -6 -8 -18 -19 -27 -10 -9 -26 -31 -35 -48 -9 -18 -21 -33 -26
-33 -6 0 -9 -3 -8 -7 3 -14 -25 -63 -35 -63 -6 0 -7 -3 -4 -7 4 -3 -4 -25 -18
-48 -13 -23 -21 -45 -18 -49 3 -3 -1 -6 -11 -6 -9 0 -14 -4 -11 -10 3 -5 0
-22 -8 -37 -13 -25 -38 -79 -42 -93 -5 -15 -60 -138 -97 -217 -13 -27 -23 -50
-23 -53 -1 -14 -28 -70 -34 -70 -4 0 -20 -26 -36 -57 -17 -32 -34 -61 -38 -64
-5 -3 -8 -9 -8 -13 0 -6 -5 -25 -16 -53 -10 -29 -41 -134 -46 -158 -2 -5 -5
-14 -9 -20 -3 -5 -9 -30 -13 -55 -4 -25 -10 -49 -13 -55 -4 -5 -7 -14 -8 -20
-1 -5 -9 -29 -17 -52 -9 -22 -13 -44 -10 -47 4 -3 1 -6 -5 -6 -7 0 -11 -3 -10
-7 3 -12 -70 -147 -93 -171 -10 -12 -18 -25 -17 -29 1 -4 -8 -29 -20 -55 -32
-68 -44 -100 -49 -123 -2 -11 -8 -21 -13 -23 -6 -2 -10 -14 -10 -26 0 -13 -3
-26 -7 -30 -5 -4 -9 -12 -9 -17 -1 -5 -3 -11 -4 -14 -4 -8 -7 -17 -15 -52 -4
-18 -11 -33 -16 -33 -4 0 -8 -8 -7 -17 0 -10 -8 -43 -17 -73 -20 -69 -26 -97
-28 -135 -1 -16 -7 -33 -13 -37 -5 -4 -9 -22 -8 -40 1 -18 -1 -37 -5 -43 -4
-5 -8 -23 -10 -40 -2 -16 -6 -32 -10 -35 -6 -4 -18 -27 -26 -50 -1 -3 -4 -12
-8 -20 -12 -31 -18 -88 -19 -172 -1 -49 -4 -88 -8 -88 -4 0 -10 -13 -13 -29
-3 -16 -13 -36 -22 -45 -9 -9 -13 -20 -10 -26 3 -5 2 -10 -3 -10 -15 0 -23
-56 -25 -185 -2 -66 -6 -126 -11 -133 -4 -7 -5 -16 -2 -19 3 -3 0 -15 -6 -27
-7 -11 -13 -28 -14 -36 -1 -8 -4 -24 -7 -35 -23 -89 -28 -112 -31 -125 -1 -8
-5 -22 -8 -30 -4 -8 -7 -22 -7 -30 -2 -30 -13 -95 -18 -110 -3 -8 -6 -31 -7
-50 -1 -19 -4 -39 -7 -45 -4 -5 -7 -29 -7 -53 -1 -23 -4 -51 -7 -62 -14 -45
-26 -589 -13 -607 9 -11 5 -137 -7 -243 -11 -92 -17 -351 -9 -368 4 -10 8 -44
9 -77 2 -33 4 -62 5 -65 1 -3 4 -14 5 -25 1 -11 5 -47 10 -80 4 -33 7 -71 6
-84 0 -12 2 -28 6 -35 5 -6 9 -27 10 -46 4 -67 16 -140 22 -140 4 0 6 -21 5
-47 -1 -27 1 -52 6 -58 4 -5 8 -73 8 -150 -1 -77 2 -147 5 -155 4 -12 14 -98
19 -170 0 -8 5 -21 11 -28 5 -7 7 -15 5 -18 -6 -5 17 -105 31 -139 60 -139 75
-193 76 -275 1 -47 5 -92 8 -100 6 -14 15 -98 19 -167 0 -18 5 -33 10 -33 5 0
8 -10 7 -22 -1 -13 1 -30 4 -38 5 -14 14 -51 22 -95 2 -11 4 -21 5 -22 2 -2 3
-7 4 -12 0 -5 4 -13 9 -17 4 -4 7 -18 7 -31 0 -12 4 -23 8 -23 4 0 9 -11 10
-25 1 -14 9 -39 17 -55 9 -17 13 -30 9 -30 -4 0 -1 -7 6 -15 7 -9 10 -18 7
-21 -3 -4 0 -13 8 -21 8 -8 15 -23 15 -34 0 -10 5 -19 10 -19 6 0 10 -6 8 -13
-1 -6 6 -27 16 -46 15 -28 28 -68 50 -151 2 -8 10 -28 16 -45 12 -31 22 -70
23 -92 0 -7 4 -13 9 -13 4 0 8 -11 8 -24 0 -14 4 -27 9 -31 6 -3 8 -14 6 -25
-2 -11 1 -20 6 -20 5 0 9 -6 8 -12 -1 -7 1 -21 4 -30 22 -59 23 -61 31 -93 6
-27 35 -115 46 -140 16 -39 23 -60 22 -67 -1 -5 3 -8 9 -8 6 0 9 -9 6 -20 -3
-11 -1 -20 4 -20 5 0 9 -7 9 -15 0 -8 4 -15 10 -15 5 0 9 -3 8 -7 -3 -11 57
-128 72 -143 23 -22 81 -120 76 -128 -4 -6 -2 -13 3 -16 4 -3 12 -20 16 -38 8
-36 11 -45 15 -53 1 -3 3 -8 5 -12 3 -14 16 -47 28 -73 6 -14 11 -28 11 -32 1
-3 4 -10 9 -14 4 -4 7 -16 7 -26 0 -10 4 -18 10 -18 5 0 9 -3 8 -7 -2 -11 24
-66 35 -74 5 -3 8 -10 8 -15 -2 -9 59 -134 69 -144 6 -6 50 -86 65 -117 5 -13
13 -23 18 -23 4 0 7 -6 7 -13 0 -8 13 -32 29 -54 16 -23 27 -44 24 -47 -4 -3
-2 -6 3 -6 5 0 18 -17 29 -37 11 -21 22 -40 25 -43 3 -3 11 -15 18 -27 6 -13
18 -33 25 -45 6 -13 15 -25 18 -28 8 -6 49 -77 80 -137 12 -23 27 -39 32 -36
6 4 7 1 2 -7 -4 -7 -4 -15 1 -19 5 -3 22 -32 37 -63 16 -32 33 -58 38 -58 6 0
7 -5 3 -11 -3 -6 -2 -14 2 -18 5 -3 18 -25 28 -48 11 -24 23 -43 28 -43 5 0
13 -11 18 -25 5 -14 17 -28 25 -31 8 -4 15 -11 15 -18 0 -6 14 -25 30 -43 17
-18 30 -35 30 -38 0 -3 12 -17 26 -30 15 -14 23 -25 18 -25 -4 0 7 -16 26 -35
19 -19 31 -35 26 -35 -4 0 3 -10 16 -23 13 -12 47 -53 76 -92 53 -70 113 -140
185 -217 20 -22 37 -43 37 -47 0 -4 22 -29 50 -56 27 -27 48 -51 46 -53 -3 -2
12 -21 32 -42 43 -43 52 -56 70 -90 32 -62 44 -80 52 -80 5 0 11 -9 15 -19 6
-21 115 -130 176 -178 20 -15 47 -43 60 -61 13 -19 39 -47 57 -64 17 -17 32
-35 32 -40 0 -9 227 -238 237 -238 3 0 24 -18 45 -40 22 -22 44 -40 49 -40 6
0 7 -5 4 -10 -3 -6 0 -10 7 -10 7 0 30 -16 50 -35 20 -19 40 -35 44 -35 4 0
19 -11 33 -24 71 -67 90 -83 94 -79 3 2 20 -11 40 -29 50 -47 88 -78 94 -78 3
0 27 -19 53 -42 25 -24 68 -61 94 -83 26 -22 55 -47 64 -55 10 -8 32 -27 51
-42 18 -16 29 -28 25 -28 -4 0 2 -8 13 -17 11 -10 22 -26 26 -35 3 -10 39 -39
79 -65 40 -26 75 -50 78 -53 3 -3 12 -6 20 -8 8 -2 32 -12 53 -22 20 -11 37
-18 37 -15 0 2 28 -24 63 -58 71 -70 103 -97 110 -91 2 2 10 -2 17 -11 7 -8
19 -15 26 -15 8 0 14 -4 14 -8 0 -8 67 -40 97 -47 7 -2 26 -10 44 -19 17 -9
35 -13 40 -10 5 3 9 0 9 -5 0 -6 7 -11 15 -11 8 0 15 -4 15 -10 0 -5 6 -10 13
-10 7 0 23 -9 35 -20 12 -12 22 -17 22 -13 0 4 4 4 8 -2 9 -13 42 -34 65 -41
9 -4 17 -11 17 -16 0 -5 5 -6 10 -3 6 3 10 2 10 -2 0 -10 61 -49 71 -46 4 1
15 -7 24 -17 10 -11 24 -20 32 -20 7 0 13 -5 13 -12 0 -6 3 -8 6 -5 4 4 14 -1
23 -11 9 -9 23 -18 31 -20 8 -2 17 -8 18 -13 2 -5 8 -9 13 -9 11 0 72 -42 77
-53 2 -4 8 -5 13 -1 5 3 9 0 9 -6 0 -6 14 -16 30 -21 17 -6 30 -15 30 -20 0
-5 7 -9 15 -9 8 0 15 -4 15 -10 0 -5 6 -10 13 -10 7 0 29 -8 50 -19 36 -18
114 -52 130 -57 4 -1 10 -3 15 -4 4 -2 12 -4 17 -5 10 -2 25 -7 60 -21 11 -4
25 -9 30 -9 6 -1 18 -5 27 -9 9 -4 22 -5 28 -1 5 3 10 3 10 -2 0 -4 13 -14 28
-20 15 -7 36 -20 47 -28 46 -35 94 -63 99 -57 3 3 6 0 6 -6 0 -7 7 -12 15 -12
8 0 15 -4 15 -10 0 -5 7 -7 15 -4 8 4 15 1 15 -5 0 -6 7 -11 15 -11 8 0 15 -5
15 -11 0 -5 4 -8 9 -4 5 3 13 0 16 -6 4 -5 13 -8 21 -5 8 3 14 1 14 -3 0 -5
18 -12 40 -16 22 -4 42 -10 45 -15 3 -5 16 -7 30 -5 14 1 25 -2 25 -6 0 -5 42
-9 94 -9 54 0 98 -4 101 -10 4 -6 10 -8 15 -5 4 3 10 -2 14 -10 3 -8 12 -15
21 -15 8 0 15 -4 15 -8 0 -5 10 -14 23 -21 12 -6 31 -17 42 -24 87 -53 169
-99 220 -122 33 -14 69 -31 80 -36 39 -18 105 -38 105 -32 0 3 6 1 13 -5 11
-9 86 -28 147 -36 14 -2 42 -10 63 -19 20 -9 37 -13 37 -10 0 3 7 -1 17 -8 9
-8 18 -13 19 -12 8 5 64 -10 64 -17 0 -3 6 -7 13 -8 6 0 19 -3 27 -5 8 -3 30
-8 48 -12 17 -4 32 -11 32 -16 0 -4 9 -6 20 -4 11 2 20 -1 20 -6 0 -6 6 -9 13
-6 6 2 20 0 30 -5 10 -5 31 -10 48 -10 16 -1 29 -4 29 -8 0 -3 19 -6 43 -5 24
1 49 -5 60 -13 9 -9 17 -10 17 -4 0 5 6 9 13 8 72 -15 87 -20 87 -28 0 -5 4
-7 9 -3 5 3 12 1 15 -4 6 -9 82 -25 104 -22 6 1 12 -2 12 -7 0 -5 21 -9 48 -9
81 -2 84 -2 76 -15 -6 -10 -4 -10 7 -2 15 11 94 11 144 -1 17 -4 38 -7 48 -7
9 1 17 -4 17 -9 0 -5 6 -9 13 -8 15 3 69 -11 82 -22 6 -4 13 -8 17 -8 38 -6
69 -15 74 -22 2 -4 11 -6 19 -2 8 3 15 0 15 -7 0 -7 8 -9 20 -5 11 4 20 2 20
-4 0 -6 9 -11 19 -11 11 0 32 -5 48 -12 57 -23 161 -35 190 -23 10 5 24 7 32
6 8 -1 10 2 6 10 -5 7 -3 10 6 7 8 -3 28 2 44 10 36 19 33 18 120 34 39 7 73
16 76 21 4 5 10 4 13 -2 4 -6 16 -11 27 -11 11 0 43 -14 72 -30 30 -17 61 -30
70 -30 9 0 17 -4 17 -10 0 -5 10 -10 23 -10 13 0 27 -3 30 -7 4 -3 17 -8 30
-9 12 -1 31 -4 42 -7 11 -3 45 -8 75 -12 30 -4 60 -10 65 -13 6 -4 21 -8 35
-11 43 -7 315 -9 325 -2 6 4 44 6 85 4 227 -11 480 -14 480 -5 0 5 16 8 35 6
19 -1 37 2 41 7 3 5 16 9 29 9 13 0 27 5 30 10 4 6 11 8 16 5 5 -4 15 -3 22 2
6 4 59 9 117 11 147 4 262 12 280 19 8 3 33 7 55 9 66 5 158 21 185 31 8 4 23
7 33 8 9 2 18 3 20 5 1 1 9 3 17 5 8 1 35 8 60 15 25 7 50 13 57 14 7 1 16 5
19 9 4 4 16 7 26 7 10 0 18 4 18 9 0 5 9 7 20 4 11 -3 20 -1 20 5 0 5 16 13
35 16 19 4 35 11 35 16 0 6 3 9 8 8 15 -4 82 24 82 34 0 6 3 9 6 5 4 -3 20 1
37 10 30 15 61 21 129 25 20 1 34 6 32 10 -3 4 12 8 34 8 21 0 42 3 45 6 4 4
19 8 34 10 41 4 65 10 106 28 21 8 40 15 42 15 3 0 27 10 53 22 26 12 51 23
55 23 5 1 15 10 23 20 8 11 14 17 14 13 0 -4 21 9 46 28 25 19 51 35 57 36 7
0 35 1 62 1 28 0 55 3 60 6 6 4 21 8 35 9 52 6 90 16 90 24 0 5 6 6 14 3 8 -3
17 -1 21 5 3 6 13 11 21 11 8 0 31 7 52 17 20 9 39 17 42 18 56 20 135 58 142
69 4 6 8 8 8 4 0 -3 35 11 77 32 42 21 81 37 85 34 4 -3 8 0 8 6 0 6 6 10 13
9 15 -3 59 17 112 51 45 28 135 114 135 128 0 14 39 46 58 48 9 1 40 6 67 10
28 4 53 7 58 6 4 -1 7 3 7 9 0 5 4 8 8 5 5 -3 22 8 37 24 16 17 37 30 46 30
10 0 21 5 24 10 4 6 10 8 15 5 16 -10 83 30 124 74 71 77 130 131 143 131 7 0
13 3 13 8 0 4 8 12 19 17 10 6 51 33 91 60 39 28 83 57 96 65 53 34 139 95
146 105 4 5 8 6 8 2 0 -4 12 3 27 17 15 14 30 23 34 21 4 -3 9 2 13 10 3 8 10
15 16 15 6 0 16 5 23 10 47 39 106 78 111 73 3 -4 6 -1 6 5 0 6 8 13 18 16 9
3 29 17 45 31 15 14 27 22 27 18 0 -4 4 -3 8 2 11 15 99 75 110 75 5 0 12 7
16 15 3 8 10 15 17 15 6 0 29 14 50 31 21 17 39 27 39 23 0 -4 19 13 43 37 48
51 211 189 222 189 4 0 18 11 31 25 13 14 26 25 29 25 5 0 29 17 93 65 7 6 22
18 33 28 11 10 24 15 29 12 6 -4 10 -2 10 4 0 6 37 38 83 73 45 34 104 80 131
102 61 51 238 226 228 226 -4 1 2 8 13 18 22 19 75 87 75 96 0 4 42 49 93 101
101 103 167 179 167 192 0 4 9 14 20 21 12 7 19 16 16 21 -3 4 3 15 12 24 27
25 56 67 72 105 5 12 14 22 19 22 5 0 12 12 15 26 4 15 12 32 19 40 29 32 33
40 29 52 -2 6 1 12 7 12 6 0 11 7 11 15 0 8 3 15 8 15 4 0 16 20 27 45 11 25
23 45 27 45 5 0 7 3 6 7 -1 7 8 33 29 83 3 8 5 21 4 28 -1 6 3 12 9 12 5 0 10
11 10 24 0 14 4 27 10 31 5 3 7 12 3 20 -3 8 0 15 5 15 6 0 9 9 7 20 -2 11 0
20 6 20 5 0 9 8 9 18 0 9 16 37 36 62 20 25 55 70 77 100 22 30 79 94 126 143
46 48 81 87 77 87 -4 0 6 12 21 26 15 14 28 29 28 32 0 4 15 27 33 51 17 24
32 50 32 58 0 7 4 13 8 13 8 0 25 29 32 55 2 6 14 27 27 47 13 21 21 38 18 38
-4 0 1 10 9 22 9 12 16 30 16 40 0 10 4 18 8 18 6 0 29 68 33 98 0 4 5 12 11
19 5 7 7 17 3 23 -3 5 -2 10 4 10 6 0 13 17 18 38 9 44 8 43 15 62 17 42 36
145 31 164 -11 43 -11 148 1 169 24 46 49 77 56 72 5 -3 12 0 17 7 10 16 94
58 116 58 19 0 63 89 58 118 -1 6 2 12 7 12 5 0 9 7 10 15 1 8 3 22 4 30 1 8
5 15 10 15 4 0 8 10 8 23 0 13 3 27 7 31 7 6 10 23 16 79 0 9 5 17 9 17 4 0 8
14 8 30 0 17 5 30 10 30 6 0 10 6 9 13 -1 6 1 21 5 32 38 98 60 155 72 180 7
17 16 42 20 58 3 15 10 27 15 27 5 0 8 3 7 8 -1 4 3 22 9 40 7 18 13 36 13 40
1 4 6 13 12 19 6 7 8 20 4 28 -3 8 -1 15 4 15 6 0 10 8 10 18 0 10 3 22 8 26
4 4 7 15 8 24 0 10 3 24 7 32 10 28 20 95 19 133 -1 21 3 49 8 62 6 15 6 27 0
30 -6 4 -9 25 -8 48 1 23 -2 57 -6 74 -7 29 -4 37 23 63 41 42 72 86 64 94 -3
3 -2 6 4 6 12 0 26 37 23 58 0 8 3 19 8 25 5 7 8 33 7 60 -1 26 2 47 6 47 4 0
8 39 7 86 0 47 4 90 10 96 6 6 8 16 6 23 -3 7 -1 16 5 20 6 3 11 12 11 20 0 8
5 26 12 42 6 15 12 33 14 38 11 39 17 65 21 95 3 19 9 40 12 45 4 6 7 30 6 55
-1 25 1 50 5 55 4 6 7 33 7 60 0 28 3 68 7 90 8 37 10 55 18 130 2 17 7 36 12
43 4 7 5 16 2 19 -3 3 0 15 6 26 13 24 15 127 3 146 -9 16 -10 305 -1 320 4 6
8 45 8 86 0 42 5 78 9 81 12 7 12 374 -1 374 -5 0 -9 41 -8 98 1 54 -2 104 -7
112 -10 16 -10 283 0 299 11 19 9 275 -3 279 -5 1 -8 12 -5 22 3 11 0 20 -6
20 -7 0 -10 10 -7 25 3 14 0 25 -5 25 -5 0 -9 11 -9 24 0 14 -4 27 -10 31 -5
3 -7 12 -3 20 3 9 0 21 -6 29 -7 8 -11 18 -10 22 1 5 -1 16 -4 24 -4 8 -8 92
-10 185 -2 94 -6 181 -10 195 -12 50 -12 51 -34 108 -3 9 -5 20 -5 25 1 4 -2
7 -7 7 -4 0 -9 48 -9 108 -1 100 -6 146 -19 182 -4 8 -5 20 -4 26 0 6 -9 33
-21 60 -12 27 -23 56 -24 64 -2 8 -9 19 -16 25 -9 7 -13 35 -12 90 0 44 -2 85
-5 90 -3 6 -6 33 -7 62 -1 44 -6 56 -30 76 -25 22 -28 30 -25 76 1 28 -1 51
-6 51 -5 0 -8 19 -8 43 1 23 -2 47 -8 54 -5 7 -7 18 -4 25 2 7 0 21 -5 32 -9
17 -12 29 -20 81 -2 11 -5 22 -8 25 -9 9 -33 77 -45 128 -4 18 -12 35 -16 38
-5 3 -7 10 -4 15 4 5 1 9 -5 9 -7 0 -10 7 -7 15 4 8 2 17 -3 20 -6 4 -10 15
-10 26 0 10 -5 19 -11 19 -5 0 -7 5 -4 10 4 6 2 16 -3 23 -5 7 -13 28 -17 47
-4 19 -10 40 -14 45 -3 6 -6 12 -6 15 -6 38 -30 130 -38 148 -6 12 -21 25 -34
28 -13 4 -23 9 -23 13 0 4 -25 21 -55 36 l-55 29 1 164 c1 108 -2 166 -9 171
-6 4 -7 12 -3 20 6 9 -8 38 -38 85 -26 39 -72 108 -102 154 -29 45 -57 82 -61
82 -5 0 -8 6 -8 14 0 8 -36 49 -79 91 l-80 77 -4 117 c-4 132 -7 151 -32 206
-10 22 -17 43 -17 48 1 4 -2 7 -7 7 -5 0 -11 10 -15 23 -3 12 -6 24 -7 27 -1
3 -10 11 -20 18 -11 7 -19 18 -19 23 0 14 -74 85 -138 134 -54 40 -55 44 -53
108 1 20 -3 37 -8 37 -5 0 -8 15 -7 33 2 17 0 37 -4 42 -3 6 -13 30 -20 55 -8
25 -15 47 -16 50 -1 3 -5 15 -9 28 -4 12 -11 22 -16 22 -5 0 -6 7 -3 15 4 8 2
15 -4 15 -6 0 -21 17 -33 37 -25 40 -71 95 -107 127 -13 12 -36 33 -50 47 -15
15 -64 51 -109 82 -45 30 -79 58 -75 61 3 3 0 6 -7 6 -7 0 -11 8 -10 18 7 51
-59 222 -94 244 -7 4 -8 8 -4 8 7 0 0 11 -31 45 -7 8 -10 15 -5 15 4 0 3 4 -3
8 -6 4 -30 36 -54 72 -24 36 -48 68 -54 72 -6 4 -7 8 -2 8 5 0 3 7 -4 15 -8 9
-30 15 -56 15 -38 0 -49 5 -80 38 -47 49 -104 117 -104 125 0 10 -64 101 -84
120 -10 9 -15 17 -11 17 14 0 -67 73 -99 91 -24 13 -33 26 -39 60 -8 37 -24
58 -101 136 -51 51 -96 93 -100 93 -3 0 -104 98 -224 217 -119 120 -220 218
-224 219 -5 1 -11 2 -15 3 -15 2 -143 113 -143 124 0 12 -133 142 -142 140 -4
-2 -8 1 -8 6 0 15 -110 64 -151 66 -21 2 -46 10 -54 19 -9 9 -20 16 -24 16 -4
0 -18 10 -31 23 -14 12 -27 22 -30 22 -3 0 -24 17 -45 37 -82 76 -147 133
-162 142 -8 4 -23 16 -32 25 -9 9 -34 25 -56 36 -22 11 -42 23 -45 27 -3 3
-19 10 -35 14 -17 4 -34 10 -40 13 -5 4 -17 7 -25 6 -24 -2 -66 22 -69 39 -1
9 -2 25 -3 36 -1 11 -10 23 -20 26 -10 3 -18 9 -18 13 0 5 -18 11 -40 15 -22
3 -40 11 -40 16 0 6 -3 9 -7 8 -10 -2 -36 8 -88 33 -57 27 -99 42 -107 41 -5
-1 -8 3 -8 8 0 6 -6 10 -14 10 -33 0 -253 108 -328 161 -14 11 -29 19 -33 19
-3 0 -26 14 -50 30 -24 17 -46 30 -50 30 -3 0 -22 11 -43 23 -20 13 -50 32
-67 43 -16 10 -33 17 -37 16 -5 -1 -8 3 -8 8 0 6 -6 10 -14 10 -8 0 -16 3 -18
8 -9 21 -155 105 -168 97 -6 -4 -10 -1 -10 4 0 6 -13 11 -28 11 -16 0 -32 3
-36 7 -4 4 -44 8 -89 8 -84 1 -127 10 -127 25 0 5 -7 7 -15 4 -8 -4 -15 -2
-15 3 0 8 -69 44 -92 47 -4 1 -16 9 -28 18 -11 10 -20 16 -20 13 0 -5 -51 16
-125 50 -27 13 -57 25 -65 27 -8 2 -21 9 -28 16 -7 6 -22 12 -33 12 -10 0 -19
5 -19 10 0 6 -6 10 -12 9 -7 -1 -26 4 -43 11 -16 7 -33 14 -37 15 -5 2 -10 4
-13 5 -3 1 -8 3 -12 5 -5 1 -21 8 -38 15 -16 7 -36 12 -42 11 -7 -1 -13 4 -13
10 0 7 -3 9 -6 6 -4 -3 -16 -1 -28 5 -11 7 -28 13 -36 14 -34 6 -50 10 -56 17
-4 4 -13 7 -20 7 -7 0 -25 5 -41 12 -15 7 -32 13 -38 13 -5 1 -19 5 -30 9 -41
16 -50 19 -65 22 -8 1 -40 10 -70 19 -30 9 -62 18 -70 20 -8 2 -15 4 -15 5 0
3 -51 13 -75 14 -14 0 -28 5 -32 10 -3 5 -17 11 -30 12 -63 9 -98 17 -98 24 0
4 -11 5 -25 2 -14 -2 -31 0 -38 6 -6 5 -22 8 -34 6 -13 -2 -23 0 -23 5 0 4
-24 11 -52 14 -29 3 -64 9 -78 12 -14 4 -43 9 -65 11 -22 2 -67 8 -100 14 -98
16 -137 20 -202 23 -34 2 -65 6 -69 10 -4 4 -38 7 -76 7 -37 0 -68 3 -68 8 0
4 -12 8 -27 9 -16 1 -39 4 -53 8 -14 3 -41 8 -60 11 -19 3 -42 8 -50 11 -40
15 -98 17 -553 17 -268 1 -487 4 -487 9 0 13 -253 8 -280 -6z m745 -1258 c6
-4 21 -6 35 -5 14 1 30 -1 36 -6 11 -8 76 -18 132 -19 17 -1 32 -5 32 -9 0 -4
19 -8 42 -8 23 -1 60 -4 82 -8 43 -7 77 -10 166 -16 30 -2 60 -6 65 -10 6 -3
30 -6 55 -5 25 0 61 -4 80 -8 19 -4 52 -7 74 -6 21 0 43 -2 50 -6 6 -4 29 -9
51 -10 22 -1 69 -6 105 -12 36 -6 80 -11 98 -11 17 0 32 -3 32 -8 0 -5 14 -8
30 -7 17 1 33 -1 36 -6 3 -5 21 -9 40 -9 19 0 34 -3 34 -7 0 -5 10 -9 23 -9
12 -1 36 -4 52 -6 29 -5 39 -8 80 -24 11 -4 28 -8 38 -9 9 -2 19 -4 22 -5 3
-1 8 -3 13 -5 17 -5 48 -17 64 -26 10 -5 24 -6 33 -3 8 4 15 1 15 -6 0 -7 7
-10 15 -7 8 4 17 2 20 -3 4 -6 16 -10 29 -10 12 0 27 -5 34 -12 7 -7 12 -8 12
-4 0 5 7 3 15 -4 9 -7 18 -10 22 -7 3 3 17 0 32 -7 14 -7 32 -11 39 -9 6 3 12
0 12 -7 0 -6 6 -10 13 -9 6 1 25 -3 40 -9 16 -7 39 -12 53 -12 13 0 24 -5 24
-10 0 -6 3 -9 8 -8 14 4 72 -14 72 -22 0 -4 6 -7 13 -7 24 2 87 -15 87 -24 0
-5 6 -6 14 -3 8 3 29 -2 46 -11 18 -9 34 -14 37 -11 3 3 18 -1 34 -10 16 -8
29 -12 29 -8 0 4 7 1 15 -6 8 -7 15 -9 15 -4 0 5 4 5 8 -1 10 -14 41 -33 75
-46 15 -6 27 -15 27 -20 0 -5 3 -8 8 -7 4 0 25 -7 47 -17 22 -10 46 -18 53
-18 6 0 12 -4 12 -9 0 -4 8 -8 18 -8 9 0 30 -7 46 -15 15 -8 32 -13 36 -10 5
3 11 1 14 -4 4 -5 25 -13 49 -17 47 -9 46 -9 67 -17 8 -3 22 -6 30 -6 8 0 40
-5 70 -11 30 -6 73 -13 95 -15 100 -10 117 -14 139 -29 27 -17 76 -77 76 -93
0 -5 11 -23 25 -39 14 -16 25 -33 25 -37 0 -4 14 -21 30 -37 17 -16 30 -27 30
-24 0 4 17 -8 38 -25 47 -40 55 -45 72 -49 8 -2 18 -9 22 -15 4 -6 10 -8 14
-5 4 4 19 -1 33 -11 14 -10 32 -16 39 -14 6 3 12 0 12 -5 0 -9 16 -14 90 -28
26 -5 42 -23 34 -36 -3 -4 -1 -8 4 -8 5 0 21 -12 36 -26 14 -15 26 -23 26 -19
0 4 10 -3 23 -16 26 -29 133 -109 144 -109 5 0 25 -12 46 -26 21 -14 47 -26
57 -27 11 -1 20 -4 20 -8 0 -4 10 -11 23 -15 25 -7 114 -69 138 -96 9 -10 19
-18 23 -18 6 0 105 -79 174 -140 18 -16 36 -30 40 -31 7 -2 74 -55 119 -94 12
-11 46 -40 74 -65 79 -68 201 -182 222 -207 10 -13 22 -23 27 -23 11 0 540
-530 540 -541 0 -5 5 -9 10 -9 13 0 34 -21 92 -95 26 -33 55 -67 63 -76 8 -9
15 -21 15 -27 0 -6 6 -15 13 -19 19 -12 87 -100 87 -112 0 -6 4 -11 9 -11 4 0
22 -21 39 -47 47 -73 175 -248 184 -251 4 -2 8 -9 8 -16 0 -7 9 -21 20 -31 11
-10 20 -22 20 -27 0 -4 8 -16 18 -26 9 -10 24 -29 32 -42 8 -13 23 -32 33 -42
9 -10 17 -21 16 -24 -1 -3 8 -17 20 -30 12 -13 21 -29 21 -34 0 -6 5 -10 10
-10 6 0 10 -4 10 -10 0 -5 9 -21 21 -34 12 -13 20 -27 19 -31 -1 -4 7 -14 17
-23 20 -18 63 -78 63 -87 0 -3 8 -13 18 -23 9 -10 24 -29 32 -42 8 -12 32 -45
53 -71 20 -27 37 -51 37 -54 0 -3 5 -11 10 -18 18 -21 64 -84 80 -108 8 -12
22 -30 32 -40 16 -17 28 -46 35 -81 7 -38 10 -54 17 -70 3 -10 9 -26 12 -35 7
-19 11 -35 17 -68 2 -11 10 -33 17 -50 7 -16 14 -32 15 -35 6 -27 29 -87 36
-96 5 -6 6 -14 2 -17 -3 -4 -1 -7 6 -7 7 0 10 -4 6 -9 -3 -5 1 -16 9 -24 8 -8
12 -17 9 -21 -3 -3 -1 -11 5 -18 6 -7 11 -17 12 -23 1 -5 10 -28 20 -50 9 -22
23 -57 31 -77 7 -21 16 -38 20 -38 4 0 10 -12 14 -27 6 -27 45 -113 55 -123 3
-3 6 -11 8 -19 2 -8 10 -30 19 -50 9 -20 15 -39 15 -43 -1 -5 2 -8 8 -8 5 0
10 -6 10 -14 0 -7 12 -40 26 -72 14 -33 30 -68 34 -79 43 -98 59 -155 42 -155
-5 0 -15 -13 -22 -30 -7 -16 -16 -30 -21 -30 -5 0 -9 -8 -9 -19 0 -21 -33 -34
-48 -19 -18 18 -149 -1 -217 -31 -25 -11 -45 -17 -45 -14 0 3 -7 0 -15 -7 -8
-7 -15 -9 -15 -5 0 4 -7 2 -16 -6 -9 -7 -25 -14 -37 -16 -45 -7 -122 -9 -132
-4 -5 3 -19 7 -29 8 -11 2 -25 8 -31 13 -7 5 -15 7 -18 4 -3 -4 -14 -3 -24 2
-10 4 -25 9 -33 10 -8 1 -41 7 -72 14 -98 19 -129 21 -278 21 -185 -1 -250 -4
-250 -13 0 -5 -15 -8 -33 -8 -19 0 -37 -3 -41 -7 -4 -5 -15 -8 -24 -9 -9 0
-24 -3 -32 -6 -32 -12 -105 -30 -106 -27 0 2 -8 -2 -16 -8 -12 -10 -22 -9 -53
7 -22 11 -45 20 -52 20 -7 0 -13 4 -13 9 0 6 -8 10 -17 10 -10 0 -49 5 -88 11
-38 5 -74 10 -80 10 -18 0 -150 -9 -155 -11 -3 -1 -21 -1 -40 -1 -19 0 -39 -3
-45 -7 -10 -7 -166 -5 -350 5 -49 2 -97 1 -105 -2 -8 -4 -26 -8 -40 -9 -14 -1
-42 -9 -64 -18 -21 -9 -41 -17 -45 -17 -10 0 -101 -96 -101 -107 0 -6 -6 -16
-14 -22 -8 -7 -18 -26 -21 -42 -4 -16 -10 -29 -14 -29 -4 0 -7 -8 -8 -17 -2
-25 -7 -46 -15 -58 -3 -6 -9 -27 -13 -48 -4 -20 -11 -37 -17 -37 -5 0 -8 -6
-7 -12 1 -7 0 -20 -3 -28 -4 -8 -9 -24 -14 -35 -4 -11 -8 -24 -9 -30 -1 -5 -3
-13 -5 -17 -5 -14 -7 -23 -15 -55 -4 -18 -11 -33 -16 -33 -5 0 -6 -6 -3 -13 2
-7 -2 -27 -11 -43 -8 -16 -15 -39 -15 -51 0 -13 -4 -23 -10 -23 -5 0 -7 -7 -4
-15 4 -8 2 -21 -4 -28 -6 -6 -13 -29 -17 -49 -4 -21 -10 -38 -14 -38 -4 0 -7
-10 -6 -22 1 -13 -2 -30 -6 -38 -14 -28 -22 -55 -20 -68 1 -8 -3 -19 -9 -27
-6 -7 -10 -17 -9 -21 1 -5 0 -16 -4 -24 -9 -26 -20 -75 -18 -84 1 -4 -3 -14
-9 -21 -6 -7 -10 -17 -9 -21 2 -9 -8 -57 -18 -84 -14 -37 -23 -228 -13 -260 8
-23 82 -100 91 -94 5 3 9 0 9 -5 0 -6 9 -11 19 -11 11 0 22 -4 26 -9 3 -5 17
-8 30 -5 14 2 25 0 25 -6 0 -6 11 -8 25 -6 14 3 25 1 25 -3 0 -7 79 -33 111
-36 9 -1 22 -6 30 -10 14 -9 45 -15 97 -17 17 -1 32 -5 32 -10 0 -4 33 -8 73
-7 39 1 79 -2 88 -5 23 -10 138 -13 141 -4 3 7 90 13 318 21 41 1 80 5 85 9 6
3 29 5 53 4 24 -1 45 1 48 6 3 5 10 6 15 2 15 -9 219 -10 219 -1 0 5 5 5 11 2
14 -9 67 -15 164 -18 88 -2 139 15 173 58 13 16 23 21 32 15 8 -5 17 -7 21 -4
4 2 10 0 14 -6 3 -5 17 -10 30 -10 13 0 26 -4 29 -8 3 -5 19 -7 35 -6 17 1 31
-2 31 -8 0 -5 8 -8 18 -7 9 2 31 -1 47 -5 40 -12 66 -13 88 -3 11 5 19 3 22
-5 4 -11 49 -13 213 -11 218 3 251 5 269 16 7 4 14 4 17 -1 6 -10 66 -3 66 7
0 4 21 8 48 8 26 0 65 3 87 7 22 4 57 8 77 11 21 2 43 7 50 12 7 4 27 8 43 9
17 1 32 2 35 4 14 8 320 7 320 -1 0 -5 14 -7 30 -4 26 5 32 1 41 -21 5 -15 10
-42 11 -61 1 -18 4 -33 8 -33 4 0 8 -12 8 -27 0 -16 5 -55 11 -88 6 -33 13
-78 14 -100 1 -22 5 -44 8 -50 3 -5 6 -35 5 -65 -1 -30 2 -57 6 -60 9 -7 14
-108 5 -116 -3 -3 -1 -18 5 -33 12 -29 18 -550 7 -566 -4 -5 -9 -37 -12 -70
-3 -33 -9 -82 -12 -110 -3 -27 -7 -72 -8 -99 -2 -27 -7 -51 -12 -53 -6 -2 -8
-28 -7 -58 2 -30 0 -55 -5 -55 -5 0 -10 -24 -11 -52 -6 -136 -7 -153 -14 -158
-4 -3 -8 -29 -9 -58 -2 -29 -6 -55 -9 -57 -4 -2 -6 -25 -5 -50 2 -25 -1 -48
-6 -51 -5 -3 -8 -24 -8 -47 1 -23 -2 -53 -6 -67 -8 -24 -13 -71 -17 -152 -1
-21 -6 -38 -10 -38 -4 0 -8 -15 -8 -34 0 -19 -4 -37 -10 -41 -5 -3 -7 -12 -3
-20 3 -9 0 -22 -6 -29 -7 -8 -11 -20 -10 -28 1 -7 -3 -33 -10 -57 -7 -24 -13
-52 -14 -62 -1 -11 -5 -19 -10 -19 -4 0 -7 -6 -6 -12 2 -10 -13 -71 -26 -108
-1 -3 -6 -20 -10 -38 -4 -18 -11 -35 -16 -38 -4 -2 -6 -11 -2 -19 3 -8 0 -15
-6 -15 -6 0 -10 -3 -9 -7 1 -5 -5 -28 -12 -53 -17 -58 -21 -72 -22 -87 -1 -7
-5 -13 -10 -13 -4 0 -8 -9 -8 -20 0 -11 -5 -20 -11 -20 -5 0 -7 -4 -4 -10 3
-5 3 -16 -2 -22 -4 -7 -8 -15 -8 -18 -5 -33 -18 -70 -25 -70 -5 0 -7 -7 -4
-15 4 -8 2 -15 -4 -15 -5 0 -13 -16 -16 -35 -4 -19 -16 -56 -28 -82 -12 -26
-23 -52 -23 -58 -1 -5 -3 -13 -5 -17 -4 -12 -7 -21 -15 -45 -4 -13 -11 -23
-15 -23 -4 0 -7 -6 -7 -12 2 -22 -26 -98 -35 -98 -5 0 -7 -4 -4 -9 3 -5 -4
-31 -16 -57 -12 -27 -23 -51 -23 -54 0 -3 -9 -30 -20 -60 -11 -30 -20 -57 -20
-60 -3 -11 -17 -47 -31 -78 -8 -18 -12 -38 -9 -43 4 -5 2 -9 -4 -9 -9 0 -25
-51 -21 -66 1 -4 -2 -10 -7 -13 -5 -3 -23 -33 -40 -66 -27 -53 -60 -115 -96
-180 -6 -11 -12 -22 -12 -25 -1 -3 -13 -29 -28 -57 -15 -29 -28 -56 -28 -60 0
-5 -6 -15 -13 -23 -7 -8 -28 -44 -46 -80 -18 -36 -37 -68 -44 -72 -6 -4 -8 -8
-4 -8 4 0 0 -9 -9 -20 -9 -10 -18 -26 -19 -35 -1 -9 -10 -25 -18 -34 -9 -10
-16 -23 -16 -29 0 -7 -4 -12 -10 -12 -5 0 -10 -5 -10 -11 0 -6 -15 -37 -32
-68 -18 -31 -33 -58 -34 -61 0 -3 -5 -16 -11 -30 -6 -14 -11 -29 -11 -34 0 -5
-5 -12 -10 -15 -10 -7 -47 -112 -44 -125 2 -4 -3 -15 -10 -23 -11 -14 -14 -26
-21 -82 -2 -14 -14 -29 -32 -39 -16 -8 -43 -28 -60 -43 -16 -16 -33 -29 -37
-29 -5 0 -8 -7 -8 -15 0 -7 -6 -18 -13 -22 -13 -9 -42 -63 -39 -75 1 -5 -2 -8
-7 -8 -9 0 -27 -94 -22 -118 2 -15 -8 -26 -72 -72 -51 -37 -197 -179 -197
-191 0 -4 -6 -14 -12 -21 -23 -25 -58 -77 -58 -87 0 -5 -6 -16 -13 -23 -19
-19 -72 -112 -69 -120 1 -5 -2 -8 -6 -8 -4 0 -21 -23 -37 -50 -21 -36 -38 -52
-57 -57 -16 -3 -28 -9 -28 -14 0 -5 -10 -7 -22 -5 -13 1 -40 -8 -60 -21 -21
-13 -38 -21 -38 -18 0 6 -16 -6 -50 -37 -10 -9 -21 -14 -24 -10 -3 3 -6 0 -6
-6 0 -7 -4 -12 -9 -12 -5 0 -63 -53 -128 -118 -66 -64 -136 -130 -157 -147
-21 -16 -49 -40 -63 -52 -14 -13 -29 -23 -32 -23 -3 0 -22 -14 -41 -30 -45
-39 -49 -41 -90 -70 -19 -13 -37 -27 -40 -30 -3 -3 -23 -19 -45 -35 -22 -16
-52 -40 -67 -54 -16 -14 -28 -21 -28 -17 0 5 -9 -3 -21 -18 -11 -14 -26 -26
-33 -26 -6 0 -18 -9 -26 -20 -8 -11 -19 -20 -25 -20 -7 0 -22 -11 -35 -25 -13
-14 -29 -25 -37 -25 -7 0 -13 -4 -13 -9 0 -14 -132 -108 -188 -134 -26 -12
-49 -24 -52 -27 -3 -3 -27 -16 -55 -30 -27 -14 -56 -30 -63 -37 -7 -7 -17 -13
-21 -13 -5 0 -20 -12 -35 -26 -14 -15 -26 -24 -26 -21 0 3 -11 -5 -25 -19 -14
-14 -25 -29 -25 -33 0 -10 -128 -74 -147 -74 -7 0 -13 -3 -13 -7 0 -4 -18 -13
-40 -20 -22 -7 -40 -17 -40 -22 0 -4 -3 -7 -7 -6 -5 1 -44 -16 -88 -37 -44
-22 -82 -40 -85 -40 -3 0 -41 -18 -85 -40 -44 -22 -82 -40 -85 -40 -3 -1 -19
-8 -36 -18 -17 -9 -34 -13 -38 -10 -3 4 -6 1 -6 -5 0 -7 -5 -12 -12 -12 -16 0
-118 -71 -118 -82 0 -5 -4 -7 -9 -4 -5 3 -14 -1 -21 -9 -7 -8 -17 -15 -22 -15
-5 0 -16 -7 -25 -15 -8 -8 -19 -13 -24 -10 -5 4 -9 2 -9 -3 0 -9 -37 -25 -52
-23 -5 1 -8 -4 -8 -9 0 -5 -3 -9 -7 -8 -5 1 -25 -6 -47 -15 -21 -9 -49 -19
-61 -21 -13 -2 -33 -9 -44 -16 -12 -6 -21 -8 -21 -5 0 4 -6 3 -12 -2 -16 -9
-36 -15 -65 -17 -13 0 -23 -4 -23 -8 0 -5 -13 -8 -30 -8 -16 0 -30 -4 -30 -9
0 -4 -11 -7 -25 -6 -14 2 -27 -1 -31 -6 -3 -5 -16 -9 -29 -9 -13 0 -26 -4 -29
-9 -3 -5 -15 -7 -26 -4 -11 3 -20 1 -20 -5 0 -5 -8 -9 -17 -9 -10 1 -38 -5
-63 -13 -25 -7 -48 -14 -52 -16 -5 -1 -10 -3 -13 -4 -3 -1 -8 -3 -12 -5 -18
-5 -51 -18 -91 -36 -23 -10 -49 -19 -57 -19 -8 0 -15 -5 -15 -11 0 -5 -4 -8
-9 -4 -5 3 -13 0 -16 -5 -11 -18 -57 -33 -100 -34 -22 -1 -44 -4 -50 -8 -5 -3
-39 -6 -75 -6 -36 0 -77 -5 -91 -11 -15 -5 -29 -7 -33 -4 -3 3 -13 2 -23 -1
-10 -4 -19 -7 -21 -7 -4 2 -107 -51 -112 -58 -3 -3 -25 -7 -50 -9 -75 -4 -104
-8 -123 -16 -10 -5 -20 -6 -23 -3 -3 3 -20 1 -37 -5 -34 -10 -87 -18 -127 -19
-14 -1 -29 -4 -35 -9 -5 -4 -48 -8 -95 -9 -47 -1 -86 -5 -88 -9 -1 -5 -17 -7
-35 -6 -17 1 -38 -3 -46 -9 -8 -7 -16 -11 -18 -9 -6 6 -67 -10 -80 -20 -7 -6
-13 -7 -13 -3 0 4 -7 2 -15 -5 -8 -7 -15 -9 -15 -6 0 4 -15 -3 -32 -16 -18
-13 -34 -22 -35 -21 -2 1 -20 -5 -40 -14 -21 -9 -40 -17 -43 -18 -3 0 -16 -7
-29 -14 -29 -16 -65 -11 -161 24 -41 15 -80 28 -87 29 -7 1 -16 5 -19 9 -4 4
-18 7 -31 7 -12 0 -23 4 -23 9 0 5 -9 7 -20 4 -11 -3 -20 -1 -20 5 0 6 -9 9
-20 7 -11 -2 -20 0 -20 4 0 5 -17 12 -37 15 -49 8 -59 10 -113 26 -44 13 -83
19 -127 21 -13 1 -23 5 -23 9 0 5 -15 7 -32 6 -18 -1 -38 2 -44 6 -14 10 -108
19 -329 32 -44 3 -82 6 -85 7 -3 1 -9 0 -15 -1 -28 -6 -95 -5 -95 2 0 5 -10 2
-22 -5 -23 -14 -89 -16 -118 -4 -23 9 -141 38 -173 42 -16 2 -34 8 -41 14 -7
6 -16 8 -19 5 -3 -4 -14 -3 -24 2 -10 4 -25 8 -33 10 -8 1 -35 7 -60 14 -25 7
-52 14 -60 16 -8 1 -33 8 -55 14 -40 11 -74 18 -107 24 -10 1 -21 5 -24 9 -4
4 -17 7 -28 7 -12 0 -33 8 -46 17 -14 10 -25 16 -25 14 0 -1 -26 9 -59 23 -32
14 -64 26 -71 26 -6 0 -15 3 -19 8 -4 4 -11 7 -14 8 -4 0 -20 6 -35 12 -16 7
-34 12 -41 12 -7 0 -16 3 -20 8 -4 4 -11 7 -14 8 -4 0 -14 4 -23 8 -9 4 -20 6
-25 5 -5 -1 -16 0 -24 3 -8 4 -24 9 -35 14 -11 4 -27 8 -35 8 -8 1 -21 5 -27
9 -7 4 -35 11 -63 14 -27 3 -50 10 -50 16 0 5 -11 7 -25 5 -14 -3 -25 -2 -25
2 0 5 -17 8 -37 8 -21 0 -39 4 -41 10 -1 5 -16 8 -31 6 -20 -2 -42 6 -70 26
-22 17 -43 30 -47 30 -3 0 -25 14 -50 30 -24 17 -44 28 -44 24 0 -3 -6 -1 -13
5 -8 6 -17 8 -20 4 -4 -3 -7 -1 -7 5 0 7 -7 12 -15 12 -8 0 -15 5 -15 11 0 5
-4 8 -9 4 -5 -3 -13 0 -16 6 -4 5 -13 8 -21 5 -8 -3 -14 -2 -14 3 0 10 -38 24
-57 22 -7 -1 -13 3 -13 10 0 6 -7 9 -15 6 -8 -4 -17 -2 -19 2 -5 8 -55 22 -86
25 -8 1 -21 5 -28 10 -7 4 -19 5 -27 2 -8 -3 -15 -2 -15 2 0 8 -64 38 -66 31
-1 -2 -11 5 -23 15 -12 11 -21 16 -21 11 0 -4 -7 -2 -15 5 -8 7 -15 9 -15 4 0
-5 -4 -4 -8 2 -4 6 -36 24 -72 41 -36 17 -96 45 -135 63 -38 18 -73 33 -77 32
-5 -1 -8 3 -8 8 0 6 -5 10 -11 10 -10 0 -65 23 -149 63 -25 12 -50 29 -57 37
-7 8 -13 12 -13 8 0 -7 -33 19 -77 60 -14 13 -27 21 -30 18 -3 -3 -15 6 -28
20 -12 13 -26 24 -31 24 -5 0 -16 9 -24 20 -8 11 -19 20 -26 20 -6 0 -19 9
-29 20 -10 11 -20 18 -22 16 -3 -2 -13 3 -22 12 -31 29 -56 48 -74 55 -9 3
-17 11 -17 17 0 5 -9 10 -20 10 -11 0 -20 5 -20 10 0 6 -8 14 -17 17 -10 4
-48 26 -85 50 -38 23 -68 40 -68 35 0 -4 -4 -2 -8 4 -8 12 -84 49 -94 46 -5
-1 -8 2 -8 7 0 5 -13 12 -30 16 -16 4 -30 10 -30 13 0 4 -19 13 -42 20 -77 23
-96 36 -114 72 -10 19 -17 39 -16 43 1 4 -5 10 -13 13 -8 4 -15 12 -15 19 0
16 -110 116 -121 110 -4 -3 -9 -1 -11 3 -4 11 -98 75 -98 67 0 -11 -58 34
-101 80 -24 25 -47 45 -51 45 -5 0 -33 25 -63 55 -30 30 -58 55 -62 55 -4 0
-17 10 -28 23 -11 12 -58 56 -105 97 -103 91 -99 86 -132 131 -15 20 -40 50
-55 66 -15 16 -44 49 -63 72 -19 24 -44 53 -55 65 -29 33 -128 149 -140 164
-5 7 -29 33 -51 57 -23 24 -40 46 -38 48 2 2 -17 23 -41 47 -25 24 -45 48 -45
52 0 4 -15 23 -32 41 -18 19 -51 56 -73 82 -67 81 -125 148 -161 186 -19 20
-34 39 -34 43 0 4 -18 26 -39 49 -21 23 -66 72 -100 108 -34 36 -61 71 -61 77
0 7 -3 12 -7 12 -5 0 -26 28 -48 63 -22 34 -42 64 -45 67 -4 3 -12 21 -20 40
-8 19 -17 37 -21 40 -3 3 -28 46 -54 95 -26 50 -51 92 -56 93 -5 2 -7 8 -4 13
4 5 -5 21 -19 36 -14 15 -23 29 -21 33 2 3 -14 26 -36 50 -21 25 -39 49 -39
54 0 13 -115 120 -147 136 -15 8 -32 21 -36 28 -5 7 -12 10 -18 7 -5 -4 -9 -1
-9 4 0 6 -6 11 -14 11 -18 0 -41 27 -26 32 12 4 16 176 5 227 -7 31 -12 63
-19 105 -1 11 -8 22 -14 24 -6 2 -8 10 -5 18 3 8 0 20 -6 28 -6 7 -8 16 -4 19
3 4 1 7 -5 7 -6 0 -9 9 -7 20 2 11 0 20 -5 20 -5 0 -13 12 -16 26 -4 15 -25
63 -48 108 -22 44 -40 84 -41 88 0 4 -8 16 -17 28 -10 11 -16 20 -13 20 7 0
-68 144 -79 152 -6 4 -7 8 -2 8 5 0 3 7 -4 15 -6 8 -9 19 -5 25 3 5 2 10 -3
10 -5 0 -13 10 -17 23 -9 29 -11 33 -30 87 -19 51 -19 52 -38 137 -13 61 -13
93 0 123 3 8 7 17 7 20 2 11 41 56 51 59 6 2 21 8 35 14 14 6 33 11 43 12 9 2
20 4 25 5 4 2 302 4 662 7 645 3 840 8 840 22 0 4 28 8 63 9 115 4 137 7 137
13 0 16 237 33 246 17 7 -10 171 -11 178 0 3 5 22 8 43 7 21 -1 43 1 48 5 15
9 115 11 115 2 0 -5 39 -8 86 -7 47 0 88 -3 90 -7 7 -10 391 -10 398 0 2 4 31
7 63 7 32 -1 63 2 68 6 8 6 460 5 640 -1 46 -2 127 18 137 34 4 6 8 7 8 2 0
-5 7 -3 15 4 8 7 15 10 15 6 0 -4 10 0 23 9 12 8 33 16 45 18 12 2 25 6 28 10
11 11 52 8 59 -3 4 -6 10 -8 15 -5 4 3 10 -2 14 -10 3 -8 12 -15 21 -15 8 0
15 -4 15 -9 0 -19 72 -33 170 -33 55 -1 100 -4 100 -7 0 -8 442 -8 455 0 6 4
25 6 43 5 17 0 32 2 32 7 0 4 13 7 28 7 16 0 32 3 36 7 4 5 12 9 17 9 5 1 11
2 14 3 4 1 -38 43 -68 66 -7 6 -31 26 -53 45 -22 19 -64 55 -93 80 -30 25 -66
56 -81 70 -16 14 -53 45 -84 70 -30 25 -55 52 -56 61 0 9 -7 22 -15 29 -8 6
-14 15 -13 18 3 13 -25 62 -35 62 -6 0 -7 3 -4 6 4 4 -3 20 -14 35 -11 16 -17
29 -12 29 4 0 3 4 -2 8 -6 4 -23 32 -38 62 -16 30 -47 91 -71 136 -23 44 -40
86 -38 92 2 7 -1 12 -6 12 -6 0 -13 18 -17 40 -4 22 -11 42 -15 45 -5 3 -7 12
-3 20 3 8 0 15 -7 15 -7 0 -10 8 -7 20 3 11 1 20 -3 20 -5 0 -11 13 -15 30 -4
16 -11 32 -16 35 -5 4 -9 15 -9 26 0 10 -4 19 -10 19 -5 0 -7 6 -4 14 3 8 0
17 -5 21 -6 3 -9 11 -6 16 4 5 1 9 -4 9 -6 0 -11 9 -11 20 0 11 -5 20 -10 20
-6 0 -9 3 -8 8 4 10 -26 72 -34 72 -4 0 -5 7 -2 15 4 8 2 15 -4 15 -6 0 -15
12 -21 28 -14 37 -43 84 -60 98 -8 6 -11 16 -7 22 3 6 -2 13 -12 16 -9 3 -25
21 -35 38 -10 18 -40 49 -67 68 -27 19 -49 38 -50 43 0 4 -7 7 -15 7 -8 0 -15
5 -15 12 0 6 -3 8 -6 5 -4 -4 -19 0 -33 7 -37 20 -63 29 -86 31 -11 0 -25 4
-31 7 -6 4 -46 7 -90 8 -43 0 -86 1 -94 1 -8 0 -46 -2 -85 -6 -38 -3 -85 -6
-102 -7 -18 0 -33 -4 -33 -8 0 -9 -122 -11 -135 -1 -5 4 -102 6 -215 4 -260
-4 -294 -6 -302 -17 -7 -11 -178 -14 -185 -3 -2 4 -9 4 -15 1 -15 -9 -128 -11
-128 -2 0 4 -14 3 -30 -2 -21 -6 -28 -5 -24 2 5 7 2 8 -6 3 -17 -10 -330 -12
-330 -2 0 5 -5 5 -11 1 -17 -10 -138 -10 -132 0 4 5 0 6 -7 1 -16 -10 -270
-12 -277 -2 -2 4 -9 4 -15 1 -15 -9 -128 -11 -128 -2 0 4 -14 3 -30 -2 -21 -6
-28 -5 -24 2 5 7 2 8 -6 3 -17 -10 -330 -12 -330 -2 0 5 -5 5 -11 1 -17 -10
-138 -10 -132 0 4 5 0 6 -7 1 -16 -10 -270 -12 -277 -2 -2 4 -9 4 -16 0 -15
-9 -97 -10 -97 0 0 5 -5 5 -11 1 -17 -10 -127 -14 -409 -14 -270 0 -362 3
-395 13 -11 3 -38 7 -60 8 -22 2 -44 5 -50 8 -11 6 -17 8 -38 10 -9 1 -12 96
-12 449 0 246 4 453 8 460 5 7 7 25 6 40 -1 15 2 40 6 57 5 16 8 45 8 65 0 19
3 40 7 45 5 6 8 26 9 45 0 19 5 67 11 105 6 39 11 81 12 95 0 14 3 30 7 35 3
6 7 28 9 50 6 88 14 151 22 160 4 6 6 26 4 45 -1 19 1 40 7 46 5 6 9 22 8 35
-1 31 11 130 18 149 4 8 7 20 8 25 1 6 3 12 4 15 2 3 5 19 7 35 3 17 9 31 14
33 5 2 6 10 3 18 -3 8 0 20 6 27 6 8 9 23 6 35 -2 12 0 22 6 22 5 0 9 11 9 23
0 13 3 27 7 31 4 3 8 16 10 29 4 29 9 49 16 67 3 8 9 29 13 45 4 17 8 35 10
40 9 32 35 134 38 150 1 6 5 16 9 23 5 6 6 16 2 21 -3 5 -1 12 5 16 5 3 10 17
10 30 0 13 5 27 10 30 6 4 8 15 5 25 -3 10 -1 21 5 25 5 3 10 17 10 31 0 13 4
24 9 24 4 0 6 11 3 25 -2 15 0 25 8 25 7 0 9 8 5 20 -4 13 -2 20 6 20 7 0 10
3 7 6 -3 3 2 32 12 65 10 32 16 59 13 59 -3 0 2 10 10 23 10 15 12 29 7 38 -5
8 -5 16 0 19 5 3 11 15 13 25 1 11 6 26 11 33 4 7 5 16 2 19 -3 3 1 14 8 25 8
11 12 28 9 39 -3 10 -1 19 5 19 6 0 11 8 11 18 0 36 26 133 34 125 5 -4 6 5 3
20 -2 14 0 29 5 32 5 4 9 17 9 30 0 13 4 26 10 30 5 3 7 12 4 20 -4 9 12 35
38 64 44 48 118 163 118 182 0 5 4 9 9 9 8 0 24 37 22 53 -1 4 4 7 10 7 5 0 7
5 4 10 -3 6 -1 10 4 10 6 0 11 8 11 18 0 10 5 23 12 30 7 7 8 12 4 12 -5 0 -3
7 4 15 7 8 9 15 6 15 -4 0 0 7 8 16 9 8 14 20 11 25 -4 5 -1 9 6 9 7 0 9 3 6
7 -4 3 -2 12 4 20 6 7 8 13 3 13 -5 0 -4 4 3 8 6 4 13 16 15 27 1 11 5 22 8
25 10 10 110 220 107 226 -1 3 6 10 16 15 9 6 17 16 17 23 0 7 11 23 25 36 14
13 25 29 25 37 0 7 4 13 8 13 4 0 21 25 37 55 17 30 33 55 38 55 4 0 7 4 7 10
0 5 13 29 29 52 48 73 66 103 63 111 -1 4 2 7 8 7 5 0 17 16 26 35 9 19 20 35
24 35 4 0 11 11 14 25 4 14 11 25 16 25 6 0 10 5 10 10 0 6 29 56 65 111 36
55 65 102 65 105 0 3 12 21 26 40 15 19 22 34 18 34 -5 0 -1 5 9 11 9 5 17 14
17 19 0 12 47 81 68 100 9 9 33 26 52 40 19 13 39 30 43 37 4 7 12 13 18 13
12 0 317 309 379 384 25 30 63 75 85 99 22 25 60 69 85 98 25 29 88 97 141
151 52 54 94 100 91 103 -2 2 7 7 22 11 14 3 26 11 26 16 0 6 7 8 15 4 8 -3
15 -1 15 4 0 5 10 12 22 16 12 3 28 12 36 18 20 15 195 190 262 263 77 83 95
93 160 93 43 0 64 6 95 27 40 27 95 81 95 94 0 8 91 54 103 51 4 -1 7 3 7 8 0
6 5 10 12 10 6 0 26 11 44 25 18 14 35 25 38 25 6 0 21 12 93 74 18 15 33 34
33 41 0 8 8 12 19 10 11 -2 22 3 25 11 3 8 12 14 21 14 8 0 15 5 15 12 0 6 3
8 6 5 4 -4 19 2 33 12 14 10 31 20 36 21 20 4 100 44 115 56 8 7 20 14 25 15
20 4 80 34 83 42 2 4 8 5 12 2 5 -3 18 2 30 12 11 10 24 18 28 18 4 1 23 9 42
20 19 11 37 20 40 20 3 1 14 5 25 9 19 8 38 16 167 75 26 11 54 21 62 21 8 0
16 4 18 8 2 4 30 19 63 33 85 37 99 42 108 41 4 -1 7 2 7 7 0 8 20 16 43 19 4
0 19 8 33 17 13 9 28 13 33 10 5 -2 11 2 15 10 3 8 13 15 22 15 9 0 28 6 42
14 15 7 45 22 67 32 22 11 41 22 43 26 2 3 14 4 28 2 13 -2 24 0 24 6 0 5 14
10 30 10 17 0 30 4 30 10 0 5 7 7 15 4 8 -4 22 -1 30 6 8 7 21 10 30 7 8 -4
17 -2 19 2 3 5 25 12 48 16 44 8 54 11 63 15 3 1 8 3 13 4 4 2 27 8 52 16 25
7 51 13 58 13 6 0 12 4 12 9 0 4 3 7 8 7 17 -4 72 14 72 23 0 6 7 8 15 4 8 -3
15 -1 15 4 0 6 3 9 8 8 4 -1 21 4 37 11 17 7 32 12 34 11 2 -1 7 2 10 7 3 4
27 18 54 31 26 13 47 28 47 33 0 6 4 8 9 4 5 -3 12 -1 16 5 4 6 11 8 16 5 5
-4 9 -2 9 3 0 5 26 12 58 16 68 7 125 14 172 20 19 3 62 8 95 12 33 4 65 10
70 13 6 4 29 7 53 6 23 0 42 3 42 8 0 5 12 7 26 4 15 -2 42 0 61 5 39 10 104
18 171 21 23 1 42 5 42 9 0 4 22 8 49 8 28 0 52 4 55 8 3 5 23 7 45 5 23 -2
41 1 41 5 0 9 12 11 171 17 58 2 116 8 130 12 13 5 142 8 287 8 145 -1 265 2
267 5 5 9 187 7 200 -1z"/>
<path d="M12203 14603 c-7 -5 -83 -8 -170 -7 -87 0 -162 -3 -168 -7 -5 -4 -39
-8 -75 -8 -96 -2 -194 -12 -205 -20 -5 -4 -29 -7 -52 -6 -24 1 -43 -1 -43 -5
0 -3 -18 -7 -40 -8 -23 -2 -51 -6 -63 -11 -12 -4 -32 -6 -44 -5 -13 0 -23 -2
-23 -7 0 -4 -12 -8 -27 -8 -44 0 -113 -12 -113 -20 0 -4 -12 -6 -27 -5 -16 1
-34 -4 -42 -10 -8 -6 -16 -10 -18 -8 -5 5 -77 -10 -88 -18 -5 -4 -18 -6 -27
-5 -10 2 -18 0 -18 -4 0 -4 -17 -8 -37 -8 -33 -1 -64 7 -143 34 -15 6 -21 7
-70 17 -14 3 -45 10 -70 16 -49 12 -91 19 -131 24 -15 2 -40 7 -57 11 -50 11
-146 16 -292 16 -149 0 -210 -5 -345 -27 -11 -2 -34 -5 -50 -7 -17 -2 -35 -6
-41 -10 -6 -3 -199 -6 -430 -6 -230 0 -423 -1 -429 -2 -5 0 -30 0 -55 1 -50 3
-90 3 -105 1 -18 -3 -730 0 -763 3 -18 1 -35 -1 -38 -6 -3 -5 -9 -6 -13 -4 -7
5 -127 10 -146 6 -28 -4 -191 2 -200 9 -13 9 -396 7 -413 -2 -6 -5 -50 -7 -97
-6 -46 2 -86 1 -89 -2 -3 -3 -33 -2 -66 1 -38 4 -64 2 -70 -5 -5 -6 -40 -10
-79 -9 -39 0 -71 -2 -71 -6 0 -4 -27 -6 -60 -6 -33 1 -60 -2 -60 -6 0 -6 -32
-10 -160 -21 -28 -2 -63 3 -92 15 -27 10 -48 15 -48 12 0 -4 -6 -2 -12 4 -18
14 -323 3 -360 -13 -10 -4 -43 -4 -75 -1 -120 11 -150 11 -213 -6 -35 -9 -69
-24 -76 -32 -6 -9 -13 -14 -16 -11 -8 8 -55 -47 -82 -97 -15 -27 -24 -48 -22
-48 3 0 1 -12 -5 -27 -6 -16 -11 -50 -10 -77 0 -26 -3 -53 -6 -60 -4 -6 -8
-13 -9 -16 -3 -18 -27 -97 -32 -105 -4 -5 -7 -12 -8 -15 0 -3 -6 -25 -14 -50
-7 -25 -13 -48 -12 -52 1 -5 -3 -8 -10 -8 -6 0 -9 -3 -5 -6 3 -3 -1 -27 -9
-52 -8 -26 -16 -51 -18 -57 -2 -5 -6 -19 -10 -30 -5 -11 -10 -27 -13 -35 -4
-8 -7 -19 -8 -25 -1 -5 -3 -13 -5 -17 -1 -5 -3 -11 -4 -15 -7 -24 -31 -63 -39
-63 -6 0 -7 -3 -4 -7 4 -3 3 -11 -2 -17 -20 -24 -37 -94 -36 -148 0 -32 -3
-58 -7 -58 -5 0 -8 -6 -8 -14 0 -8 -7 -17 -16 -20 -8 -3 -12 -10 -9 -16 3 -5
2 -10 -2 -10 -5 0 -13 -9 -18 -20 -52 -103 -81 -156 -88 -161 -4 -3 -7 -10 -5
-15 2 -8 -3 -25 -28 -89 -4 -11 -8 -24 -9 -30 -1 -5 -7 -28 -15 -50 -14 -42
-19 -65 -24 -126 -1 -19 -6 -42 -11 -49 -4 -7 -7 -31 -7 -54 1 -22 -7 -66 -18
-98 -11 -32 -20 -65 -20 -73 0 -8 -5 -15 -11 -15 -6 0 -9 -6 -6 -12 2 -7 -4
-32 -14 -55 -10 -24 -16 -43 -12 -43 3 0 0 -6 -6 -14 -6 -8 -11 -18 -10 -22 1
-5 -3 -22 -10 -39 -7 -16 -14 -34 -15 -40 -1 -5 -5 -16 -10 -23 -4 -7 -6 -16
-3 -19 3 -3 -2 -19 -12 -36 -10 -18 -17 -40 -15 -50 1 -9 -1 -17 -6 -17 -4 0
-11 -17 -15 -37 -4 -21 -12 -44 -18 -52 -7 -8 -11 -17 -10 -20 1 -3 -5 -31
-14 -61 -9 -30 -16 -58 -15 -62 1 -5 -2 -8 -7 -8 -5 0 -12 -17 -16 -37 -4 -21
-11 -42 -15 -48 -5 -5 -9 -13 -9 -17 -6 -40 -15 -68 -22 -68 -4 0 -6 -9 -4
-20 2 -11 -1 -20 -7 -20 -5 0 -8 -7 -4 -15 3 -8 2 -15 -3 -15 -5 0 -12 -15
-16 -32 -4 -18 -9 -35 -10 -38 -1 -3 -8 -26 -15 -52 -8 -27 -18 -48 -23 -48
-5 0 -7 -6 -5 -12 3 -7 -3 -26 -13 -43 -26 -42 -63 -109 -64 -115 0 -3 -8 -19
-18 -36 -9 -17 -13 -34 -10 -37 3 -4 0 -13 -6 -21 -7 -8 -10 -20 -6 -26 3 -5
2 -10 -3 -10 -5 0 -13 -15 -17 -32 -4 -18 -9 -35 -10 -38 -1 -3 -6 -20 -10
-37 -4 -18 -12 -33 -17 -33 -5 0 -6 -5 -3 -10 4 -6 1 -17 -5 -25 -6 -8 -9 -19
-5 -25 3 -5 2 -10 -2 -10 -5 0 -10 -14 -11 -32 -2 -18 -6 -35 -10 -38 -5 -3
-9 -14 -10 -25 -3 -42 -9 -64 -20 -77 -6 -8 -7 -19 -2 -27 4 -8 5 -24 0 -35
-4 -11 -4 -33 1 -48 4 -16 4 -28 0 -28 -5 0 -6 -11 -3 -25 2 -14 9 -25 14 -25
5 0 7 -4 3 -9 -8 -14 42 -61 84 -78 20 -9 61 -20 91 -25 60 -10 721 -12 918
-2 69 3 128 2 135 -3 7 -5 204 -8 467 -6 453 3 573 7 640 20 19 3 69 8 110 9
95 4 138 9 146 17 4 4 16 7 26 7 10 0 21 7 24 15 4 8 9 13 13 10 10 -5 76 56
92 87 7 13 12 29 10 36 -1 8 2 19 8 26 8 10 9 111 1 111 -2 0 -3 44 -4 98 -1
57 2 97 8 97 5 0 6 3 3 6 -3 4 -1 16 5 28 13 25 90 120 101 124 4 2 7 9 7 17
0 7 7 18 15 25 8 7 13 16 10 20 -2 4 5 16 15 28 11 12 20 29 20 38 0 10 3 14
7 11 6 -7 33 55 35 81 1 6 5 12 9 12 8 0 29 59 31 88 1 6 5 12 9 12 4 0 10 18
14 40 4 22 10 40 14 40 4 0 8 6 9 13 3 41 10 68 20 80 7 8 9 17 5 20 -3 4 -1
17 5 30 6 12 16 45 22 72 6 28 13 59 16 70 3 11 7 27 8 35 2 8 9 35 16 60 7
25 14 50 15 55 6 36 19 76 26 81 5 3 7 10 3 15 -3 5 -1 15 4 22 6 7 13 29 17
50 4 20 11 37 16 37 5 0 6 6 3 14 -3 8 0 17 5 21 6 3 9 10 6 15 -3 5 -1 11 5
15 5 3 10 15 10 26 0 10 4 19 9 19 5 0 8 11 6 25 -1 14 1 25 4 25 4 0 8 12 9
26 1 14 5 31 9 37 4 7 6 20 5 30 -2 9 2 17 8 17 7 0 10 6 7 14 -3 8 -3 17 1
21 4 4 7 10 8 13 4 31 21 72 40 99 13 17 24 35 24 38 0 14 74 69 117 87 20 8
250 12 783 15 814 4 970 6 1012 18 25 6 139 10 163 5 6 -1 15 -1 20 0 24 5
113 2 123 -3 5 -4 12 -1 15 7 4 9 17 12 36 10 17 -2 31 1 31 7 0 8 48 7 58 -1
1 -2 6 -3 11 -4 5 0 13 -4 17 -8 4 -5 16 -8 26 -8 10 0 18 -4 18 -9 0 -5 9 -7
20 -4 11 3 20 1 20 -5 0 -9 113 -29 135 -23 6 2 35 4 65 5 57 2 150 32 150 48
0 5 4 7 9 4 5 -3 14 1 21 9 7 8 17 15 22 15 6 0 44 34 85 77 72 74 76 76 119
75 24 -1 44 2 44 6 0 5 11 8 25 8 15 -1 54 -29 105 -76 45 -41 85 -74 91 -72
5 1 9 -2 9 -6 0 -5 39 -9 88 -10 63 0 110 -7 172 -26 47 -14 93 -26 103 -26 9
0 17 -5 17 -11 0 -5 8 -9 18 -8 39 4 43 0 37 -33 -4 -18 -8 -42 -10 -53 -1
-11 -5 -27 -8 -35 -6 -15 -19 -83 -22 -110 -1 -8 -5 -23 -9 -32 -5 -10 -6 -25
-3 -33 4 -8 2 -17 -3 -20 -6 -4 -10 -17 -10 -31 0 -14 -7 -38 -15 -55 -9 -16
-13 -34 -10 -39 3 -6 3 -10 -2 -10 -4 0 -13 -17 -20 -37 -6 -21 -17 -51 -24
-68 -7 -16 -13 -33 -14 -37 -2 -5 -4 -10 -5 -13 -1 -3 -3 -9 -4 -14 0 -5 -4
-13 -8 -17 -5 -4 -8 -16 -8 -26 0 -10 -5 -18 -11 -18 -6 0 -9 -7 -6 -15 4 -8
2 -17 -4 -20 -5 -4 -9 -12 -8 -18 1 -7 -1 -20 -4 -29 -4 -10 -10 -26 -14 -35
-3 -10 -7 -20 -8 -23 -1 -3 -5 -13 -8 -22 -4 -10 -10 -26 -14 -35 -3 -10 -5
-22 -4 -27 1 -4 -3 -14 -10 -22 -6 -7 -8 -18 -4 -24 3 -5 1 -10 -4 -10 -6 0
-11 -9 -11 -19 0 -11 -5 -32 -12 -48 -6 -15 -10 -34 -9 -40 1 -7 -3 -13 -10
-13 -7 0 -9 -10 -7 -25 3 -13 1 -26 -4 -27 -5 -2 -10 -13 -11 -26 0 -12 -4
-22 -7 -22 -4 0 -7 -6 -8 -12 0 -7 -6 -31 -12 -53 -17 -64 -20 -74 -24 -92 -2
-10 -9 -30 -15 -45 -6 -16 -8 -28 -5 -28 4 0 1 -6 -5 -13 -6 -8 -8 -17 -4 -20
3 -4 0 -13 -7 -22 -7 -8 -10 -21 -7 -29 3 -7 1 -18 -5 -24 -5 -5 -11 -20 -13
-33 -2 -13 -6 -35 -10 -49 -3 -14 -8 -36 -11 -50 -3 -14 -8 -34 -11 -45 -4
-11 -8 -28 -10 -37 -7 -38 -10 -55 -23 -113 -7 -33 -13 -64 -14 -70 -1 -5 -4
-14 -7 -20 -4 -5 -5 -20 -4 -32 1 -13 -2 -23 -6 -23 -8 0 -22 -40 -20 -57 1
-7 -3 -13 -9 -13 -5 0 -9 -3 -8 -7 1 -5 -3 -18 -10 -30 -7 -13 -10 -23 -6 -23
3 0 1 -6 -5 -13 -6 -8 -8 -17 -4 -20 3 -4 1 -7 -5 -7 -6 0 -13 -13 -17 -30 -4
-16 -11 -32 -16 -35 -5 -4 -9 -16 -9 -28 0 -12 -7 -31 -16 -42 -12 -16 -25
-52 -40 -107 -1 -5 -3 -11 -4 -15 -1 -5 -2 -12 -1 -17 1 -5 -5 -6 -14 -2 -9 3
-14 2 -11 -3 3 -4 -3 -16 -14 -26 -11 -10 -17 -22 -14 -26 3 -5 0 -9 -5 -9 -6
0 -9 -10 -7 -22 1 -13 7 -22 12 -21 5 0 17 -3 27 -8 9 -6 17 -6 16 -2 -3 20 2
23 21 13 16 -9 22 -8 27 5 5 13 7 14 14 3 7 -11 9 -11 9 1 0 11 3 11 17 0 17
-14 20 -14 41 3 8 7 12 7 12 -1 0 -9 5 -9 20 -1 15 8 20 8 20 -2 0 -10 2 -10
9 0 11 18 15 19 33 5 8 -7 18 -10 22 -6 3 4 16 8 27 10 14 2 18 -1 13 -9 -6
-10 -5 -10 8 -1 8 7 19 9 23 5 5 -4 5 -1 0 7 -6 10 -2 11 16 6 13 -4 27 -13
31 -19 5 -8 8 -7 8 2 0 7 5 10 10 7 6 -3 10 0 10 7 1 8 7 5 17 -7 12 -16 14
-16 10 -3 -8 22 9 33 17 12 4 -9 9 -14 13 -11 3 4 13 1 21 -6 13 -9 14 -9 8 1
-8 13 19 13 42 -2 7 -4 12 -4 11 1 -4 22 2 25 16 7 15 -19 16 -19 13 1 -2 11
2 19 9 18 8 -2 10 4 6 15 -8 22 1 13 16 -16 12 -22 11 -23 -8 -13 -16 9 -19 9
-15 -2 5 -15 41 -17 62 -4 7 5 12 3 12 -5 0 -10 2 -10 9 1 5 7 11 9 14 4 7
-11 67 -11 85 0 6 5 12 5 12 0 0 -4 20 -8 45 -8 25 0 45 4 45 9 0 4 -8 5 -17
1 -15 -5 -16 -4 -5 7 11 11 16 10 28 -6 10 -14 14 -16 14 -5 0 12 2 12 10 -1
9 -13 10 -13 10 0 0 13 1 13 10 0 9 -13 10 -13 10 0 0 13 1 13 10 0 9 -13 10
-13 10 0 0 13 1 13 10 0 9 -14 11 -13 14 10 1 14 13 17 23 6 5 -5 3 -6 -4 -2
-9 5 -11 2 -6 -9 5 -13 7 -14 14 -3 7 10 9 10 9 -2 0 -13 1 -13 10 0 9 13 10
13 10 0 0 -12 2 -12 9 -1 6 9 10 10 16 2 5 -9 10 -9 21 0 8 6 14 7 14 2 0 -5
7 -10 15 -10 8 0 15 5 15 10 0 5 8 3 17 -4 11 -10 14 -10 9 -1 -5 8 -1 12 11
12 26 1 50 22 47 42 -1 11 3 15 14 11 11 -5 13 -3 7 8 -7 11 -6 12 6 3 8 -6
38 -9 67 -8 54 1 59 -1 41 -26 -9 -13 -10 -12 -5 3 5 15 3 16 -15 7 -11 -6
-25 -9 -32 -7 -7 2 -18 -3 -25 -12 -11 -13 -12 -13 -6 -1 5 12 4 12 -6 3 -7
-6 -18 -9 -25 -7 -6 3 -18 -3 -26 -12 -13 -16 -12 -16 6 -8 11 5 32 9 47 8 15
0 25 2 23 6 -2 4 17 7 43 8 82 3 101 6 95 16 -4 5 1 7 11 3 10 -4 15 -3 11 3
-7 11 -33 9 -52 -3 -7 -5 -13 -5 -13 0 0 4 -5 1 -10 -7 -5 -8 -10 -10 -10 -5
0 23 18 31 69 32 29 0 48 -3 41 -7 -8 -5 -7 -9 4 -13 9 -4 15 -1 13 5 -1 8 19
13 58 14 115 4 135 6 135 13 0 4 151 7 336 6 185 0 338 3 341 8 2 4 20 7 39 7
19 0 34 4 34 8 0 5 10 8 23 7 12 -1 38 5 57 13 22 9 46 11 70 7 65 -13 168 -8
186 9 8 9 18 16 22 16 10 0 45 61 49 85 2 11 8 49 14 85 5 36 11 74 12 85 8
51 21 85 36 102 19 20 20 23 28 53 3 11 10 20 15 20 5 0 8 6 7 13 -2 20 12 57
23 57 5 0 6 5 3 10 -4 6 -1 17 5 25 7 8 10 15 6 15 -4 0 3 18 14 40 11 22 18
40 14 40 -4 0 -1 7 6 15 6 8 9 19 6 24 -4 5 -2 12 4 16 5 3 10 15 10 26 0 10
5 19 10 19 6 0 10 6 8 13 -2 10 12 63 29 107 9 21 14 41 20 73 3 15 10 27 15
27 5 0 6 5 3 10 -3 6 -3 16 2 23 4 6 8 19 9 27 1 27 16 70 23 70 4 0 6 14 5
30 -1 17 3 30 8 30 6 0 8 8 6 18 -3 10 0 26 7 36 7 9 11 26 8 36 -3 11 -1 20
5 20 6 0 9 11 7 25 -1 14 2 25 6 25 5 0 9 13 9 28 0 16 3 32 7 36 7 7 12 30
16 78 1 14 5 30 10 34 4 4 7 18 7 31 0 12 3 23 8 23 4 0 8 12 9 28 3 55 12 89
46 164 20 42 33 79 30 82 -4 3 -1 6 5 6 7 0 12 9 12 20 0 11 4 20 10 20 5 0 7
7 4 15 -4 8 -2 15 4 15 6 0 9 8 7 18 -1 9 3 23 9 31 6 8 10 15 8 15 -2 1 -1 8
2 16 11 36 20 76 19 93 0 9 4 17 9 17 5 0 8 12 7 28 -2 15 1 34 6 42 5 8 10
33 11 55 1 22 2 40 4 40 1 0 3 14 5 30 2 17 9 50 15 75 7 25 12 57 12 73 0 15
4 27 10 27 5 0 7 12 5 28 -2 15 0 38 6 52 5 14 9 51 8 83 -1 31 2 57 6 57 4 0
8 54 8 120 0 66 -3 120 -6 120 -3 0 -6 28 -7 61 0 34 -5 64 -10 68 -6 3 -8 21
-6 39 2 17 -1 32 -6 32 -6 0 -8 11 -6 25 3 13 0 27 -5 30 -5 4 -9 17 -9 30 0
13 -4 26 -10 30 -5 3 -7 12 -3 20 3 8 0 15 -7 15 -6 0 -11 8 -10 18 3 22 -10
62 -19 62 -4 0 -8 6 -8 13 0 7 -16 46 -37 86 -51 101 -59 114 -76 128 -8 7
-10 13 -5 13 7 0 7 3 0 8 -6 4 -29 32 -52 62 -41 55 -150 170 -160 170 -3 0
-24 16 -47 36 -55 47 -64 54 -71 54 -4 0 -21 11 -38 24 -28 20 -118 65 -222
110 -16 8 -43 19 -60 26 -16 8 -33 13 -37 12 -5 -1 -8 3 -8 10 0 6 -3 9 -6 5
-3 -3 -24 6 -46 20 -27 16 -50 23 -69 21 -16 -3 -30 -1 -31 4 -2 5 -26 11 -53
13 -28 3 -72 7 -100 10 -27 4 -66 8 -85 9 -20 2 -62 7 -95 11 -33 4 -82 9
-110 10 -27 1 -52 3 -55 5 -3 1 -81 4 -175 6 -93 2 -192 7 -220 9 -27 3 -55 2
-62 -2z m-1418 -4256 c0 -7 6 -13 13 -13 6 -1 14 -3 17 -4 3 -1 8 -3 13 -4 4
-1 13 -5 20 -9 7 -5 12 -3 12 5 0 10 2 10 8 1 10 -16 64 -23 81 -9 11 8 13 8
7 -1 -4 -7 -3 -13 3 -13 5 0 13 5 16 10 4 7 12 7 18 2 14 -10 138 -9 155 2 7
4 17 4 22 1 6 -3 10 0 11 7 0 10 2 10 6 1 3 -9 10 -10 24 -3 10 6 20 8 20 5 1
-3 2 -9 3 -14 2 -14 16 -26 16 -14 0 6 29 9 71 8 39 0 73 3 76 8 2 4 10 4 16
-1 14 -10 207 -9 224 1 6 4 14 4 17 -1 2 -4 39 -7 80 -6 48 1 76 -2 76 -9 0
-6 -3 -7 -6 -4 -4 3 -14 2 -24 -3 -10 -5 -20 -6 -24 -3 -11 12 -36 12 -43 1
-4 -7 -1 -8 7 -3 8 5 11 4 7 -1 -3 -5 10 -10 29 -10 19 0 34 4 34 9 0 4 6 5
13 0 19 -12 40 -13 53 -2 8 7 14 6 17 -1 3 -6 5 -6 3 1 -1 7 -10 13 -19 15
-10 1 -14 -2 -11 -8 4 -6 1 -9 -6 -6 -28 9 -19 23 16 25 31 2 35 -1 32 -20 -2
-12 -9 -21 -17 -19 -7 1 -19 -3 -27 -9 -11 -9 -14 -9 -14 1 0 10 -3 10 -15 0
-8 -6 -19 -9 -24 -6 -5 4 -13 2 -16 -4 -4 -7 -11 -7 -18 -2 -7 5 -20 8 -29 7
-9 -2 -22 3 -29 11 -9 11 -15 12 -26 2 -18 -15 -84 -18 -100 -5 -9 6 -18 5
-28 -3 -8 -7 -15 -9 -15 -4 0 4 -5 3 -12 -4 -8 -8 -15 -9 -25 -1 -9 8 -17 8
-26 1 -8 -7 -18 -7 -27 -2 -19 12 -33 13 -26 1 4 -5 -2 -8 -11 -6 -10 2 -18 4
-18 5 0 7 -36 6 -41 -1 -3 -5 -10 -7 -15 -3 -5 3 -7 10 -4 15 4 5 1 9 -6 9 -8
0 -6 5 5 13 16 11 14 13 -11 11 -15 -1 -31 -3 -35 -3 -5 -1 -7 -6 -5 -13 1 -7
-4 -13 -10 -14 -7 -1 -14 -3 -15 -4 -7 -6 -86 -5 -82 1 2 4 -3 9 -11 13 -8 3
-17 1 -20 -4 -3 -5 -14 -7 -25 -5 -11 2 -20 -1 -20 -6 0 -6 -6 -7 -12 -2 -18
11 -40 13 -52 5 -6 -3 -21 -6 -33 -7 -12 0 -25 -3 -29 -7 -4 -4 -13 0 -20 10
-7 9 -14 12 -14 6 0 -6 -17 -10 -37 -9 -21 1 -48 -2 -60 -6 -12 -5 -25 -4 -28
0 -7 13 -35 7 -46 -10 -5 -8 -9 -9 -9 -4 0 6 -9 11 -20 12 -11 1 -20 -2 -20
-7 0 -5 -8 -8 -19 -7 -16 1 -20 14 -11 37 1 3 2 8 1 12 0 4 12 17 29 29 16 12
27 26 24 31 -6 9 38 29 46 21 3 -3 5 -10 5 -16z"/>
<path d="M10730 10320 c-24 -22 -40 -40 -36 -40 5 0 3 -6 -3 -14 -8 -9 -8 -16
-2 -20 5 -4 12 -2 16 4 3 6 17 8 30 6 14 -3 27 -1 30 4 6 9 24 8 42 -3 6 -4
14 -4 17 1 3 5 22 8 43 7 21 -1 46 2 55 7 9 4 19 4 22 -1 9 -15 81 -6 81 10 0
8 -4 14 -10 14 -5 0 -15 4 -22 8 -6 4 -14 3 -17 -2 -7 -11 -118 -3 -133 9 -2
2 -7 4 -13 5 -5 1 -12 4 -15 5 -3 1 -8 3 -12 4 -18 3 -33 18 -28 27 11 17 -1
9 -45 -31z m70 -6 c0 4 6 4 13 -1 6 -4 15 -8 20 -9 4 -1 9 -3 12 -4 6 -3 22
-7 35 -9 6 0 10 -5 10 -10 0 -5 -14 -7 -30 -6 -17 1 -33 -1 -36 -6 -3 -5 -11
-6 -17 -2 -18 11 -36 12 -42 3 -3 -5 -15 -7 -27 -5 -12 3 -29 -1 -37 -8 -14
-11 -14 -10 -2 6 7 9 10 17 5 17 -4 0 7 13 26 29 32 27 36 28 53 14 9 -9 17
-13 17 -9z m195 -32 c-10 -11 -44 -12 -50 -2 -3 5 0 7 8 4 8 -3 18 0 22 5 3 6
11 9 16 5 6 -3 8 -9 4 -12z"/>
<path d="M10737 10304 c-15 -13 -23 -25 -18 -25 6 -1 17 -2 24 -3 6 -1 17 0
22 3 15 9 29 8 42 -1 6 -5 14 -5 18 2 3 6 12 7 18 4 7 -4 8 -3 4 2 -5 5 -12 9
-15 9 -4 0 -13 4 -19 8 -7 5 -13 5 -13 1 0 -4 -8 0 -17 9 -17 14 -20 13 -46
-9z m43 0 c8 -8 9 -14 4 -13 -5 1 -11 0 -14 -1 -3 -1 -13 -3 -23 -5 -18 -3
-18 -3 -1 16 21 23 19 23 34 3z"/>
<path d="M11215 10310 c-3 -6 -19 -8 -35 -5 -16 3 -31 1 -34 -3 -3 -5 -27 -8
-55 -7 -38 1 -48 -2 -44 -13 5 -11 7 -11 14 0 6 8 9 9 9 1 0 -12 54 -12 66 0
4 3 16 1 28 -5 26 -14 75 -18 82 -6 3 5 10 5 16 2 7 -4 8 -2 4 5 -4 6 -11 9
-16 6 -10 -6 -32 20 -23 28 3 4 4 7 0 7 -3 0 -9 -5 -12 -10z m16 -27 c13 -13
-40 -10 -66 4 -16 10 -14 11 18 9 21 -2 42 -7 48 -13z"/>
<path d="M11396 10301 c-4 -5 -15 -8 -26 -6 -19 4 -33 -8 -36 -33 -2 -8 2 -10
9 -4 14 10 27 10 45 -1 6 -5 13 -6 13 -3 1 3 3 11 4 16 1 6 3 12 4 15 0 3 10
-4 22 -16 16 -16 23 -18 35 -8 11 9 17 9 28 0 10 -8 16 -9 21 -1 3 6 10 8 15
5 4 -3 13 2 20 11 10 12 15 12 21 2 4 -7 24 -13 43 -13 19 -1 33 2 30 6 -2 4
0 10 6 14 5 3 10 0 10 -7 0 -10 3 -9 10 2 7 12 12 11 32 -5 13 -12 17 -13 10
-4 -6 9 -9 18 -6 22 3 3 -6 4 -20 3 -15 -2 -29 1 -32 6 -3 5 -11 5 -17 0 -7
-5 -40 -8 -74 -7 -34 0 -60 -2 -57 -6 2 -4 0 -10 -5 -13 -5 -3 -12 1 -15 10
-5 12 -10 13 -19 5 -10 -8 -17 -7 -25 1 -7 7 -12 8 -12 4 0 -5 -6 -3 -14 3 -9
8 -16 8 -20 2z m5 -14 c-6 -8 -7 -18 -3 -23 4 -4 0 -3 -8 3 -8 6 -23 9 -33 8
-9 -2 -15 1 -12 5 3 5 14 7 25 5 11 -2 22 0 25 6 4 5 9 9 12 9 3 0 0 -6 -6
-13z m241 1 c-13 -13 -64 -20 -56 -7 2 4 13 6 24 4 11 -2 22 0 25 6 4 5 9 9
13 9 3 0 1 -5 -6 -12z m-173 -5 c14 10 14 10 3 -5 -14 -17 -42 -14 -42 5 0 8
4 7 12 -1 9 -9 15 -9 27 1z m75 -5 c-4 -5 -9 -7 -12 -4 -3 3 -12 0 -21 -7 -14
-10 -14 -10 -4 4 13 16 46 23 37 7z"/>
<path d="M11756 10258 c3 -5 10 -6 15 -3 13 9 11 12 -6 12 -8 0 -12 -4 -9 -9z"/>
<path d="M10205 12292 c-3 -3 -32 -8 -63 -9 -111 -7 -182 -15 -182 -21 0 -4
-29 -6 -65 -5 -36 1 -65 -3 -65 -8 0 -5 -10 -7 -22 -6 -12 2 -42 -3 -67 -12
-27 -10 -74 -16 -111 -15 -36 0 -71 -4 -78 -9 -7 -5 -15 -7 -18 -4 -9 9 -114
-48 -153 -83 -18 -16 -30 -30 -25 -30 5 0 -2 -7 -14 -16 -12 -8 -22 -21 -22
-28 0 -17 -45 -40 -63 -33 -8 3 -19 1 -25 -5 -6 -6 -28 -13 -49 -14 -70 -6
-98 -11 -158 -29 -33 -11 -63 -19 -67 -19 -3 -1 -10 -4 -14 -8 -4 -5 -16 -8
-26 -8 -10 0 -18 -5 -18 -12 0 -6 -3 -8 -6 -5 -4 4 -19 0 -33 -7 -28 -15 -53
-24 -61 -22 -3 0 -12 -5 -20 -12 -18 -15 -113 -76 -120 -77 -3 0 -24 -15 -47
-32 -22 -18 -44 -33 -48 -33 -9 0 -48 -36 -237 -220 -198 -192 -198 -193 -198
-187 0 5 -60 -46 -107 -90 -18 -18 -37 -33 -41 -33 -13 0 -112 -114 -112 -129
0 -5 -7 -14 -15 -21 -8 -7 -12 -16 -9 -21 3 -5 1 -9 -5 -9 -8 0 -21 -40 -26
-80 0 -3 -3 -9 -7 -15 -3 -5 -5 -32 -4 -60 2 -41 -2 -54 -25 -77 -14 -16 -29
-28 -33 -28 -10 0 -66 -56 -66 -66 0 -5 -12 -20 -26 -33 -14 -14 -39 -45 -57
-70 -17 -25 -35 -49 -41 -53 -6 -4 -7 -8 -2 -8 5 0 2 -8 -6 -17 -9 -10 -19
-28 -22 -40 -4 -13 -12 -23 -17 -23 -5 0 -8 -3 -7 -7 1 -5 -5 -21 -12 -38 -7
-16 -14 -32 -15 -35 -2 -6 -23 -58 -32 -80 -9 -23 -15 -43 -17 -65 -1 -11 -8
-30 -14 -41 -6 -12 -9 -24 -6 -27 3 -3 2 -12 -2 -19 -5 -7 -10 -26 -11 -43 -1
-16 -7 -61 -13 -100 -13 -84 -16 -267 -5 -285 4 -7 7 -35 6 -62 0 -28 2 -55 6
-61 4 -6 8 -23 10 -37 10 -88 13 -105 22 -108 5 -2 7 -12 4 -22 -3 -11 -1 -20
4 -20 5 0 9 -10 8 -22 -1 -12 4 -34 12 -48 7 -14 13 -31 13 -38 0 -8 6 -26 14
-40 18 -34 39 -85 40 -94 1 -4 8 -16 17 -26 8 -10 14 -23 12 -29 -3 -7 4 -20
15 -30 10 -11 16 -25 14 -31 -2 -7 1 -12 7 -12 6 0 11 -5 11 -11 0 -12 60
-103 72 -107 4 -2 8 -8 8 -13 0 -11 24 -41 66 -86 18 -18 30 -33 28 -33 -2 0
27 -31 66 -68 38 -37 70 -73 70 -80 0 -17 82 -98 108 -106 12 -4 22 -11 22
-16 0 -5 8 -9 18 -9 40 0 79 -15 106 -42 15 -16 34 -29 41 -29 7 0 15 -4 17
-9 5 -13 147 -81 169 -81 10 0 20 -4 23 -8 3 -5 24 -7 48 -5 31 3 56 -3 88
-19 25 -13 47 -26 48 -31 2 -4 21 -10 43 -13 21 -4 39 -9 39 -13 0 -3 35 -6
77 -5 50 0 85 -4 98 -13 11 -7 30 -13 43 -13 13 0 21 -4 18 -8 -5 -8 6 -10 74
-15 19 -1 38 -6 42 -11 8 -11 370 -10 417 1 19 5 69 5 110 0 42 -4 139 -9 216
-12 77 -2 168 -5 203 -7 34 -3 62 -1 62 3 0 3 44 6 98 5 53 -1 104 1 112 5 8
4 35 8 60 10 25 1 50 5 55 8 6 3 22 6 38 7 15 1 29 3 32 4 3 1 8 3 13 4 4 1
21 6 37 10 17 5 39 9 50 9 39 0 126 -16 130 -23 3 -5 26 -1 52 7 27 8 64 16
83 19 98 11 140 12 140 4 0 -5 22 -8 50 -7 27 1 51 -1 53 -6 2 -8 305 -12 327
-3 35 13 229 27 245 17 13 -8 297 -10 310 -2 17 10 75 14 200 14 422 -2 872
-9 880 -14 12 -7 68 -23 76 -21 13 2 123 -106 126 -124 8 -46 9 -85 2 -96 -4
-6 -3 -20 2 -30 8 -15 -7 -35 -91 -118 -55 -55 -100 -97 -100 -94 0 4 -14 -7
-30 -23 l-31 -30 -472 3 c-777 5 -997 3 -997 -8 0 -6 -58 -12 -192 -20 -27 -2
-48 -7 -48 -11 0 -5 -15 -8 -32 -6 -18 1 -51 -2 -73 -6 -49 -11 -70 -11 -114
-1 -43 10 -895 11 -911 1 -6 -4 -82 -7 -168 -7 -86 0 -161 -4 -167 -8 -5 -4
-160 -6 -342 -6 -183 1 -333 -2 -333 -6 0 -4 -16 -6 -36 -4 -19 1 -37 -1 -40
-6 -3 -5 -9 -6 -13 -4 -7 5 -125 10 -146 7 -16 -3 -407 0 -443 3 -18 1 -35 -1
-38 -6 -3 -5 -9 -6 -13 -4 -7 5 -125 10 -146 7 -16 -3 -407 0 -443 3 -18 1
-35 0 -37 -3 -2 -3 -36 -4 -77 -1 -40 3 -116 2 -168 -2 -168 -13 -338 -7 -365
11 -5 4 -49 7 -97 6 -49 0 -88 2 -88 6 0 4 -44 5 -97 3 -54 -2 -136 -5 -183
-6 -47 -2 -87 -6 -90 -10 -8 -10 -185 -12 -201 -3 -16 10 -149 14 -149 4 0 -4
-16 -10 -35 -13 -19 -4 -35 -12 -35 -18 0 -6 -3 -9 -6 -5 -3 3 -16 -4 -29 -16
-30 -30 -68 -87 -58 -87 4 -1 -2 -9 -14 -19 -12 -10 -20 -21 -17 -23 2 -3 -2
-11 -11 -18 -8 -7 -15 -19 -15 -26 0 -8 -4 -14 -10 -14 -5 0 -9 -3 -8 -7 1 -5
-10 -34 -25 -65 -15 -31 -27 -62 -27 -67 0 -6 -5 -11 -11 -11 -5 0 -8 -4 -4
-10 3 -5 1 -17 -4 -27 -13 -22 -35 -105 -32 -117 1 -4 -3 -14 -10 -22 -6 -8
-9 -20 -6 -28 3 -8 0 -19 -7 -25 -7 -6 -11 -24 -10 -41 1 -16 -2 -32 -6 -35
-5 -3 -7 -14 -5 -25 2 -11 0 -22 -6 -25 -5 -4 -9 -19 -9 -36 0 -16 -4 -29 -9
-29 -4 0 -6 -10 -4 -23 3 -14 -2 -29 -11 -36 -9 -8 -16 -20 -16 -27 0 -8 -5
-14 -11 -14 -5 0 -7 -4 -4 -10 3 -5 1 -10 -5 -10 -7 0 -10 -6 -7 -14 3 -8 -3
-22 -13 -31 -11 -10 -17 -22 -14 -26 3 -5 -2 -21 -10 -36 -8 -16 -18 -41 -22
-58 -4 -16 -8 -32 -9 -35 -1 -3 -6 -20 -10 -37 -4 -18 -11 -33 -16 -33 -5 0
-6 -7 -3 -15 4 -8 1 -21 -5 -29 -6 -7 -8 -16 -4 -19 3 -4 1 -12 -4 -19 -9 -12
-21 -47 -29 -86 -1 -8 -10 -30 -20 -50 -9 -20 -17 -43 -17 -49 0 -7 -3 -13 -7
-13 -4 0 -7 -6 -8 -12 -1 -7 -6 -33 -12 -58 -24 -96 -14 -157 36 -206 13 -14
24 -22 24 -19 0 4 7 -1 16 -9 15 -15 46 -21 88 -16 10 1 16 -3 12 -8 -3 -5 19
-10 54 -11 33 0 60 3 60 7 0 5 36 8 80 7 44 0 80 2 80 6 0 4 33 7 73 7 39 0
86 4 102 7 17 4 66 9 110 10 44 1 80 3 80 5 0 8 192 6 203 -3 6 -5 12 -6 12
-3 0 4 10 1 23 -6 12 -7 27 -13 32 -14 6 0 15 -2 20 -4 12 -3 218 -9 590 -16
228 -5 306 -8 325 -14 3 -1 106 -2 230 -2 124 0 230 -3 235 -7 16 -11 828 1
915 14 25 3 81 8 125 11 145 8 200 12 200 14 0 2 18 4 40 6 22 1 40 3 40 4 0
2 45 9 90 14 22 2 49 6 60 9 11 2 25 1 30 -3 6 -5 31 -7 57 -6 26 1 49 -2 50
-6 5 -13 100 -15 105 -2 2 6 13 10 23 7 12 -3 33 10 63 39 41 39 47 42 68 31
13 -7 32 -13 41 -13 9 0 20 -4 23 -10 3 -5 15 -10 26 -10 11 0 30 -5 42 -12
28 -15 57 -18 200 -22 64 -2 117 1 117 6 0 4 3 7 8 7 15 -3 73 14 78 22 3 5
10 7 15 4 5 -4 9 -2 9 3 0 23 33 19 86 -8 31 -17 60 -27 65 -24 6 3 15 1 22
-4 12 -9 105 -8 182 2 22 3 61 8 87 10 26 3 52 7 58 11 5 3 10 1 10 -6 0 -10
3 -10 11 -2 7 7 22 8 38 4 14 -4 37 -5 51 -1 13 3 46 3 72 0 30 -4 49 -2 52 4
3 7 5 6 5 -1 1 -9 8 -10 24 -4 12 5 31 5 42 1 11 -4 31 -4 44 0 13 3 46 3 72
0 31 -4 50 -2 53 4 3 7 5 6 5 -1 1 -9 8 -10 24 -4 12 5 31 5 42 1 11 -4 31 -4
44 0 13 3 46 3 72 0 31 -4 50 -2 53 4 3 7 5 6 5 -1 1 -9 8 -10 24 -4 12 5 31
5 42 1 11 -4 31 -4 44 0 13 3 46 3 72 0 31 -4 50 -2 53 4 3 7 5 6 5 -1 1 -9 8
-10 24 -4 12 5 31 5 42 1 11 -4 31 -4 44 0 13 3 46 3 73 0 26 -4 48 -3 48 0 0
10 -7 10 545 15 871 9 1032 12 1062 20 15 4 42 9 58 10 17 1 30 3 30 4 0 2 14
4 30 6 17 2 50 9 75 15 25 6 54 12 65 14 11 2 22 5 25 6 3 2 10 4 15 5 6 1 17
4 25 8 8 3 24 8 35 13 11 4 26 9 33 11 6 1 18 5 25 6 32 10 66 24 177 75 47
21 87 38 90 38 3 -1 19 9 37 22 17 12 35 22 40 22 5 0 19 9 32 21 12 12 25 18
28 15 4 -3 13 3 20 14 8 11 19 18 24 15 5 -4 9 -3 9 2 0 4 25 24 55 43 30 19
55 38 55 43 0 4 7 7 15 7 7 0 18 6 22 13 4 6 29 23 55 36 55 29 248 223 248
249 0 11 71 82 82 82 8 0 44 30 99 82 16 14 34 28 40 30 14 5 279 270 279 279
0 5 10 19 23 32 38 42 64 75 70 91 4 9 11 16 17 16 5 0 10 6 10 13 0 7 9 23
19 34 11 12 17 24 14 27 -4 3 -1 6 6 6 7 0 11 6 8 14 -3 8 1 17 8 20 8 3 23
24 35 48 11 24 31 61 44 83 13 22 22 43 19 48 -2 4 0 7 5 7 6 0 13 12 16 26 8
31 75 134 88 134 5 0 6 5 3 11 -4 6 -1 16 7 22 16 13 74 145 84 192 4 17 9 35
13 40 3 6 6 18 7 28 1 9 3 18 4 20 4 4 10 67 16 160 3 48 9 87 13 87 8 0 7
499 -2 520 -3 8 -8 44 -11 80 -3 36 -8 79 -11 95 -3 17 -7 41 -9 55 -2 14 -6
32 -9 40 -15 45 -31 107 -30 118 0 6 -3 12 -7 12 -4 0 -11 16 -14 35 -4 19
-12 35 -18 35 -6 0 -9 3 -5 6 7 7 -50 126 -65 135 -5 3 -9 8 -7 10 2 3 -36 65
-66 108 -14 19 -228 233 -246 246 -8 6 -31 22 -51 38 -20 15 -41 27 -47 27 -6
0 -11 5 -11 10 0 6 -8 13 -17 17 -10 4 -37 19 -60 35 -24 16 -43 26 -43 23 0
-5 -49 23 -60 35 -10 10 -125 65 -132 62 -5 -1 -8 3 -8 8 0 5 -3 9 -7 9 -5 -1
-11 0 -15 1 -5 1 -11 3 -15 4 -5 1 -27 12 -51 24 -23 13 -47 20 -52 17 -6 -3
-10 -2 -10 3 0 31 -247 61 -265 32 -4 -6 -14 -9 -22 -6 -9 4 -21 2 -27 -3 -9
-8 -51 -8 -51 0 0 1 -11 3 -25 4 -14 1 -32 5 -40 8 -18 8 -360 2 -445 -8 -68
-7 -165 -15 -180 -15 -5 0 -90 1 -188 2 -97 2 -177 -1 -177 -5 0 -5 -5 -5 -11
-1 -15 9 -149 11 -149 2 0 -4 -6 -5 -13 -2 -24 9 -92 10 -109 2 -10 -5 -18 -5
-18 -1 0 11 -133 10 -141 0 -3 -5 -307 -10 -675 -12 -1104 -6 -1384 -10 -1384
-17 0 -5 -18 -7 -40 -6 -21 1 -45 -3 -52 -9 -7 -6 -23 -9 -35 -7 -13 2 -23 0
-23 -4 0 -9 -5 -11 -63 -16 -21 -2 -41 -6 -44 -9 -3 -3 -16 -2 -29 3 -14 6
-26 6 -29 0 -3 -5 -16 -6 -28 -1 -12 4 -35 4 -52 1 -16 -3 -40 -3 -52 1 -12 5
-25 4 -28 -1 -3 -5 -15 -6 -28 -1 -12 5 -33 5 -47 1 -14 -4 -34 -4 -45 0 -11
4 -28 3 -37 -2 -10 -5 -18 -5 -18 -1 0 4 -28 8 -62 9 -35 1 -76 4 -93 7 -16 4
-40 8 -53 10 -13 2 -27 8 -30 13 -4 5 -16 11 -27 12 -11 2 -21 8 -23 13 -2 5
-9 9 -17 9 -28 0 -37 31 -39 134 -1 85 2 106 14 111 31 11 132 79 149 99 7 9
18 16 23 16 19 0 178 176 178 197 0 7 5 13 10 13 6 0 10 4 10 10 0 5 13 29 29
52 16 24 27 46 25 50 -3 5 -1 8 5 8 6 0 8 7 5 15 -4 8 -2 15 4 15 6 0 16 17
23 38 6 20 15 42 19 47 4 6 11 24 15 40 9 34 10 34 17 55 8 19 29 100 32 120
1 9 5 20 8 25 7 12 22 106 19 119 -1 4 3 13 8 20 5 6 8 24 7 39 -2 15 0 27 5
27 5 0 8 16 7 36 -1 20 3 39 8 42 5 4 8 34 8 67 -1 33 2 65 7 70 4 6 7 41 5
78 -1 38 2 71 6 73 4 3 8 16 8 30 0 13 4 24 9 24 18 0 69 57 101 113 17 31 29
57 25 57 -4 0 -3 6 2 13 11 12 21 56 38 162 13 80 18 101 27 112 14 17 1 33
-26 33 -12 0 -26 3 -30 7 -3 4 -12 8 -19 9 -7 2 -23 5 -37 9 -14 3 -46 8 -72
12 -27 3 -48 9 -48 13 0 8 -33 10 -312 14 -125 2 -230 1 -233 -2z"/>
<path d="M11919 10289 c-7 -4 -6 -8 3 -11 8 -3 22 0 32 8 17 12 17 13 -3 11
-12 -1 -27 -4 -32 -8z"/>
</g>
</svg>
