<?xml version="1.0" standalone="no"?>
<!DOCTYPE svg PUBLIC "-//W3C//DTD SVG 20010904//EN"
 "http://www.w3.org/TR/2001/REC-SVG-20010904/DTD/svg10.dtd">
<svg version="1.0" xmlns="http://www.w3.org/2000/svg"
 width="1500.000000pt" height="1500.000000pt" viewBox="0 0 1500.000000 1500.000000"
 preserveAspectRatio="xMidYMid meet">
<metadata>
Created by potrace 1.11, written by Peter Selinger 2001-2013
</metadata>
<g transform="translate(0.000000,1500.000000) scale(0.100000,-0.100000)"
fill="#000000" stroke="none">
<path d="M879 14990 c-408 -69 -734 -365 -847 -768 l-27 -97 0 -6625 0 -6625
27 -97 c103 -368 378 -643 746 -746 l97 -27 6625 0 6625 0 97 27 c368 103 643
378 746 746 l27 97 0 6625 0 6625 -27 97 c-102 365 -372 637 -741 746 l-92 27
-6605 1 c-3633 1 -6626 -2 -6651 -6z m8306 -2970 c711 -48 1329 -225 1833
-524 710 -422 1162 -1072 1306 -1876 52 -295 51 -240 51 -2150 0 -1646 -1
-1795 -18 -1919 -35 -271 -99 -527 -183 -741 -431 -1089 -1538 -1754 -3045
-1830 -233 -12 -639 -13 -639 -2 0 4 42 30 92 57 131 71 348 217 470 317 137
113 334 318 435 453 286 381 465 833 537 1350 35 252 37 435 34 2465 -4 2201
-1 2086 -68 2420 -170 848 -643 1497 -1397 1915 -68 37 -123 69 -123 71 0 8
575 3 715 -6z m-2357 -23 c445 -50 711 -105 1027 -212 987 -333 1567 -997
1716 -1967 29 -190 37 -557 15 -778 -58 -605 -231 -1065 -545 -1452 -39 -48
-71 -89 -71 -91 0 -2 30 -40 66 -83 295 -353 475 -813 546 -1389 20 -170 18
-658 -5 -810 -87 -586 -298 -1018 -674 -1386 -131 -129 -203 -186 -362 -290
-470 -310 -1098 -495 -1853 -549 -94 -6 -854 -10 -2102 -10 l-1956 0 0 925 0
924 1918 4 c1904 3 1918 3 2012 24 227 50 386 127 522 252 207 190 314 493
267 757 -69 391 -362 662 -812 750 -67 13 -180 17 -609 21 l-528 5 0 859 0
859 488 0 c529 0 622 7 786 55 49 14 122 41 162 59 336 156 541 482 521 831
-23 398 -292 702 -725 818 l-117 32 -787 3 -788 3 0 -1981 0 -1980 -1152 1037
-1153 1038 -3 1873 -2 1873 2027 -4 c1787 -3 2045 -6 2171 -20z"/>
</g>
</svg>
