<?xml version="1.0" encoding="utf-8"?>
<!-- Generator: Adobe Illustrator 22.1.0, SVG Export Plug-In . SVG Version: 6.00 Build 0)  -->
<svg version="1.1" xmlns="http://www.w3.org/2000/svg" xmlns:xlink="http://www.w3.org/1999/xlink" x="0px" y="0px"
	 viewBox="0 0 1950.2603 580.46808" width="3.75rem" height="2rem" style="enable-background:new 0 0 1940 640;" xml:space="preserve">
<style type="text/css">
	.st0{display:none;}
	.st1{display:inline;fill:#595959;stroke:#000000;stroke-miterlimit:10;}
	.st2{display:inline;}
	.st3{fill:#FFFFFF;}
</style>
<g id="Layer_2" class="st0">
	<rect class="st1" width="1940" height="640"/>
</g>
<g id="Better" class="st0">
	<g class="st2">
		<path class="st3" d="M103.3,43.3H28.6v77.1l47.7,43V81.7h27.8c29.6,0,29.6,37.2,0,37.2H85.8v35.6h18.3c29.6,0,29.6,37.2,0,37.2
			H28.6V230h74.6c38.5,0,68.3-15.4,69.4-53.6c0-17.6-4.8-30.7-13.3-39.8c8.5-9.1,13.3-22.2,13.3-39.8
			C171.6,58.7,141.8,43.3,103.3,43.3z"/>
		<polygon class="st3" points="358.7,43.3 358.7,81.7 406.8,81.7 406.8,230 454.5,230 454.5,81.7 529.8,81.7 529.8,230 577.6,230 
			577.6,81.7 625.7,81.7 625.7,43.3 		"/>
		<polygon class="st3" points="197.6,43.3 197.6,230 341.7,230 341.7,191.7 245.4,191.7 245.4,160.5 296.5,160.5 296.5,112.8 
			245.4,112.8 245.4,81.7 341.7,81.7 341.7,43.3 		"/>
		<polygon class="st3" points="642.4,43.3 642.4,230 786.4,230 786.4,191.7 690.1,191.7 690.1,160.5 741.3,160.5 741.3,112.8 
			690.1,112.8 690.1,81.7 786.4,81.7 786.4,43.3 		"/>
		<path class="st3" d="M918.6,166c22.5-7.1,36.5-26.6,36.5-61.1c-1-43.6-30.8-61.7-69.2-61.7h-74.5V230H859v-59.2h8.4l43.2,59.2
			h58.7L918.6,166z M886.7,130.2H859V81.7h27.7C916.3,81.7,916.3,130.2,886.7,130.2z"/>
	</g>
</g>
<g id="Discord">
	<g>
		<path class="st3" d="M99.6,37.8H28.3V118l47.5,42.8V83h25.4c16.1,0,24.1,7.7,24.1,20.2v59.5c0,12.5-7.5,20.9-24.1,20.9H28v45.4
			h71.4c38.3,0.2,74.2-18.9,74.2-62.8v-64.1C173.8,57.4,137.9,37.8,99.6,37.8L99.6,37.8z"/>
		<path class="st3" d="M473.7,166.1v-65.8c0-23.6,42.6-29,55.5-5.4l39.3-15.9c-15.5-34-43.6-43.9-67.1-43.9
			c-38.3,0-76.1,22.1-76.1,65.1v65.8c0,43.4,37.8,65.1,75.2,65.1c24.1,0,52.9-11.8,68.8-42.8l-42.1-19.3
			C516.9,195.6,473.7,189.1,473.7,166.1L473.7,166.1z"/>
		<path class="st3" d="M343.6,109.4c-14.8-3.2-24.7-8.6-25.4-17.8c0.9-22.1,35-23,55-1.7l31.6-24.3C385.1,41.5,362.7,35,339.7,35
			c-35,0-69,19.8-69,57.2c0,36.3,27.9,55.9,58.7,60.6c15.7,2.1,33.1,8.4,32.7,19.1c-1.3,20.4-43.4,19.3-62.6-3.9L269,196.7
			c17.8,23,42.1,34.6,64.9,34.6c35,0,73.9-20.2,75.5-57.2C411.5,127.5,377.6,115.6,343.6,109.4L343.6,109.4z"/>
		<rect x="199.6" y="37.8" class="st3" width="48.2" height="190.9"/>
		<path class="st3" d="M1011.5,37.8h-71.4V118l47.5,42.8V83h25.4c16.1,0,24.1,7.7,24.1,20.2v59.5c0,12.5-7.5,20.9-24.1,20.9h-73.1
			v45.4h71.6c38.3,0.2,74.2-18.9,74.2-62.8v-64.1C1085.7,57.4,1049.8,37.8,1011.5,37.8L1011.5,37.8z"/>
		<path class="st3" d="M661.3,35.2c-39.6,0-78.9,21.5-78.9,65.6v65.1c0,43.6,39.6,65.6,79.3,65.6c39.6,0,78.9-21.9,78.9-65.6v-65.1
			C740.6,56.9,700.9,35.2,661.3,35.2z M692.3,165.9c0,13.8-15.5,20.9-30.7,20.9c-15.5,0-31-6.7-31-20.9v-65.1
			c0-14,15-21.5,30.1-21.5c15.7,0,31.6,6.7,31.6,21.5V165.9z"/>
		<path class="st3" d="M876.1,163.4c23-7.3,37.4-27.3,37.4-62.6C912.4,56.1,881.9,38,842.5,38h-76.3v190.9H815v-60.6h8.6l44.3,60.6
			h60.2L876.1,163.4z M843.4,126.6H815V83h28.4C873.7,83,873.7,126.6,843.4,126.6z"/>
	</g>
</g>
<g id="Source">
	<polygon class="st3" points="1550.4,274.3 1550.4,614.1 1812.5,614.1 1812.5,544.3 1637.2,544.3 1637.2,487.6 1730.3,487.6 
		1730.3,400.7 1637.2,400.7 1637.2,344 1812.5,344 1812.5,274.3 	"/>
	<path class="st3" d="M1344.2,502.3V385.2c0-42.1,75.8-51.7,98.7-9.6l70-28.3c-27.6-60.5-77.7-78.1-119.4-78.1
		c-68.1,0-135.5,39.4-135.5,115.9v117.1c0,77.3,67.3,115.9,133.9,115.9c42.9,0,94.1-21,122.5-76.2l-75-34.4
		C1421.2,554.8,1344.2,543.3,1344.2,502.3L1344.2,502.3z"/>
	<path class="st3" d="M1165.5,497.4c40.9-13,66.6-48.6,66.6-111.4c-1.9-79.6-56.3-111.7-126.3-111.7H970v339.8h86.9V506.2h15.3
		l78.8,107.9h107.1L1165.5,497.4z M1107.4,431.9h-50.5v-77.7h50.5C1161.3,354.2,1161.3,431.9,1107.4,431.9z"/>
	<path class="st3" d="M441.2,269.3c-70.4,0-140.4,38.3-140.4,116.7V502c0,77.7,70.4,116.7,141.2,116.7c70.4,0,140.4-39,140.4-116.7
		V386C582.4,307.9,511.6,269.3,441.2,269.3z M496.3,502c0,24.5-27.6,37.1-54.7,37.1c-27.6,0-55.1-11.9-55.1-37.1V386
		c0-24.9,26.8-38.3,53.6-38.3c27.9,0,56.3,11.9,56.3,38.3V502z"/>
	<path class="st3" d="M160.8,401.3c-26.4-5.7-44-15.3-45.2-31.8c1.5-39.4,62.4-40.9,98-3.1l56.3-43.2c-35.2-42.9-75-54.3-115.9-54.3
		c-62.4,0-122.8,35.2-122.8,101.8c0,64.7,49.7,99.5,104.5,107.9c27.9,3.8,58.9,14.9,58.2,34.1c-2.3,36.4-77.3,34.4-111.4-6.9
		L28,556.7c31.8,40.9,75,61.6,115.6,61.6c62.4,0,131.6-36,134.3-101.8C281.7,433.5,221.3,412.4,160.8,401.3L160.8,401.3z"/>
	<g>
		<path class="st3" d="M834.7,274.7H938v199.6c0,19.8-3.1,38.5-9.3,56.1c-6.2,17.6-15.8,33-29,46.1c-13.2,13.2-27,22.4-41.5,27.7
			c-20.1,7.5-44.3,11.2-72.4,11.2c-16.3,0-34.1-1.1-53.4-3.4c-19.3-2.3-35.4-6.8-48.3-13.6c-13-6.8-24.8-16.4-35.5-28.9
			s-18.1-25.3-22.1-38.6c-6.4-21.3-9.6-40.2-9.6-56.6V274.7h103.3V479c0,18.3,5.1,32.5,15.2,42.8c10.1,10.3,24.2,15.4,42.2,15.4
			c17.8,0,31.8-5.1,41.9-15.2c10.1-10.1,15.2-24.5,15.2-43V274.7z"/>
	</g>
</g>
</svg>
