<?xml version="1.0" encoding="utf-8"?>
<!-- Generator: Adobe Illustrator 22.1.0, SVG Export Plug-In . SVG Version: 6.00 Build 0)  -->
<svg version="1.1" xmlns="http://www.w3.org/2000/svg" xmlns:xlink="http://www.w3.org/1999/xlink" x="0px" y="0px"
	 viewBox="0 0 2000 2000" style="enable-background:new 0 0 2000 2000;" xml:space="preserve">
<style type="text/css">
	.st0{fill:#262626;stroke:#000000;stroke-miterlimit:10;}
	.st1{fill:#FFFFFF;}
	.st2{fill:#7289DA;stroke:#262626;stroke-width:40;stroke-miterlimit:10;}
</style>
<g id="Layer_2">
	<path class="st0" d="M1880,2000H120c-66.3,0-120-53.7-120-120V120C0,53.7,53.7,0,120,0h1760c66.3,0,120,53.7,120,120v1760
		C2000,1946.3,1946.3,2000,1880,2000z"/>
</g>
<g id="DS">
	<path class="st1" d="M1192.9,852.6c-92-20-153.4-53.4-157.4-110.7c5.3-137.4,217.4-142.7,341.4-10.7L1573,580.5
		c-122.7-149.4-261.4-189.4-404.1-189.4c-217.4,0-428.1,122.7-428.1,354.8c0,225.4,173.4,346.8,364.1,376.1
		c97.4,13.3,205.4,52,202.7,118.7c-8,126.7-269.4,120-388.1-24l-189.4,177.4c110.7,142.7,261.4,214.7,402.8,214.7
		c217.4,0,458.8-125.4,468.2-354.8C1614.4,964.7,1403.6,891.3,1192.9,852.6L1192.9,852.6z"/>
	<path class="st2" d="M452.5,391.1L452.5,391.1l-54.1,0c18.8,9.4,36.4,19.8,52.8,31.2c49.8,34.6,88.8,78.5,115.9,130.5
		c28.1,53.9,43.3,116.6,45.3,186.3l0,0.8v0.8c0,99.3,0,419.8,0,519.1v0.8l0,0.8c-1.9,69.7-17.1,132.4-45.3,186.3
		c-27.1,52-66.1,95.9-115.9,130.5c-15.9,11.1-33,21.2-51.2,30.3h51c243.8,1.4,472.6-120.5,472.6-400V800.7
		C925,515.8,696.3,391.1,452.5,391.1z"/>
</g>
</svg>
