<?xml version="1.0" encoding="utf-8"?>
<!-- Generator: Adobe Illustrator 22.1.0, SVG Export Plug-In . SVG Version: 6.00 Build 0)  -->
<svg version="1.1" xmlns="http://www.w3.org/2000/svg" xmlns:xlink="http://www.w3.org/1999/xlink" x="0px" y="0px"
	 viewBox="0 0 2000 2000" style="enable-background:new 0 0 2000 2000;" xml:space="preserve">
<style type="text/css">
	.st0{fill:#0A0A0A;stroke:#000000;stroke-miterlimit:10;}
	.st1{fill:#FFFFFF;}
</style>
<g id="Layer_2">
	<rect class="st0" width="2000" height="2000"/>
</g>
<g id="DS">
	<path class="st1" d="M1336.6,790.4c-130.7-28.4-217.8-75.8-223.5-157.2c7.6-195.1,308.7-202.6,484.8-15.2l278.4-214
		c-174.2-212.1-371.2-268.9-573.8-268.9c-308.7,0-607.9,174.2-607.9,503.8c0,320.1,246.2,492.4,517,534.1
		c138.2,18.9,291.6,73.9,287.9,168.6c-11.4,179.9-382.6,170.4-551.1-34.1l-268.9,251.9c157.2,202.6,371.2,304.9,571.9,304.9
		c308.7,0,651.5-178,664.7-503.8C1935,949.5,1635.8,845.4,1336.6,790.4L1336.6,790.4z"/>
	<path class="st1" d="M145.2,135.2L145.2,135.2l-76.8,0c26.6,13.3,51.7,28.1,75,44.3c70.7,49.1,126.1,111.5,164.6,185.3
		c39.9,76.6,61.5,165.6,64.3,264.6l0,1.2v1.2c0,141.1,0,596.1,0,737.1v1.2l0,1.2c-2.7,99-24.3,188-64.3,264.6
		c-38.5,73.8-93.8,136.2-164.6,185.3c-22.6,15.7-46.9,30.1-72.6,43.1h72.5c346.2,1.9,671-171.2,671-567.9V716.7
		C816.2,312.2,491.4,135.2,145.2,135.2z"/>
</g>
</svg>
