<?xml version="1.0" encoding="utf-8"?>
<!-- Generator: Adobe Illustrator 22.1.0, SVG Export Plug-In . SVG Version: 6.00 Build 0)  -->
<svg version="1.1" xmlns="http://www.w3.org/2000/svg" xmlns:xlink="http://www.w3.org/1999/xlink" x="0px" y="0px"
	 viewBox="0 0 2000 2000" style="enable-background:new 0 0 2000 2000;" xml:space="preserve">
<style type="text/css">
	.st0{fill:#0A0A0A;stroke:#000000;stroke-miterlimit:10;}
	.st1{fill:#FFFFFF;}
	.st2{fill:#7289DA;}
</style>
<g id="Layer_2">
	<path class="st0" d="M1880,2000H120c-66.3,0-120-53.7-120-120V120C0,53.7,53.7,0,120,0h1760c66.3,0,120,53.7,120,120v1760
		C2000,1946.3,1946.3,2000,1880,2000z"/>
</g>
<g id="DS">
	<path class="st1" d="M1265.2,838.6c-100.8-21.9-168-58.4-172.3-121.2c5.8-150.4,238.1-156.3,373.9-11.7l214.7-165
		c-134.4-163.6-286.3-207.4-442.5-207.4c-238.1,0-468.8,134.4-468.8,388.5c0,246.8,189.9,379.7,398.7,411.9
		c106.6,14.6,224.9,57,222,130c-8.8,138.7-295,131.4-425-26.3l-207.4,194.2c121.2,156.3,286.3,235.1,441.1,235.1
		c238.1,0,502.4-137.3,512.6-388.5C1726.7,961.3,1496,881,1265.2,838.6L1265.2,838.6z"/>
	<path class="st2" d="M346.4,333.3L346.4,333.3l-59.2,0c20.5,10.3,39.9,21.6,57.9,34.1c54.5,37.9,97.2,86,126.9,142.9
		c30.8,59.1,47.5,127.7,49.6,204l0,0.9v0.9c0,108.8,0,459.7,0,568.5v0.9l0,0.9c-2.1,76.3-18.8,145-49.6,204
		c-29.7,56.9-72.4,105-126.9,142.9c-17.5,12.1-36.2,23.2-56,33.2h55.9c267,1.5,517.5-132,517.5-438v-447
		C863.9,469.8,613.4,333.3,346.4,333.3z"/>
</g>
</svg>
