<svg xmlns="http://www.w3.org/2000/svg" xmlns:xlink="http://www.w3.org/1999/xlink" style="enable-background:new 0 0 512 512" id="Layer_1" width="512" height="512" x="0" y="0" version="1.1" viewBox="0 0 512 512" xml:space="preserve"><g><g><path fill="#FFF" d="M475.792,36.197C452.449,12.856,421.414,0,388.404,0c-33.011,0-64.045,12.856-87.388,36.197L36.208,301.006 c-48.184,48.184-48.184,126.587,0,174.773c11.582,11.579,25.066,20.602,40.078,26.814c5.742,2.371,12.306-0.354,14.677-6.086 c2.373-5.733-0.352-12.304-6.085-14.677c-12.273-5.077-23.301-12.459-32.78-21.939c-19.099-19.099-29.617-44.492-29.617-71.499 c0-27.007,10.519-52.399,29.617-71.497L316.907,52.086c19.098-19.099,44.489-29.617,71.497-29.617 c27.009,0,52.399,10.517,71.499,29.617c19.099,19.098,29.617,44.492,29.617,71.499s-10.519,52.399-29.617,71.497l-264.81,264.809 c-22.479,22.479-53.476,32.942-85.016,28.713c-6.145-0.83-11.806,3.492-12.63,9.643c-0.824,6.149,3.493,11.803,9.643,12.628 c5.622,0.752,11.233,1.125,16.795,1.125c32.584,0,63.631-12.754,87.099-36.221L475.792,210.97 C523.976,162.786,523.976,84.383,475.792,36.197z"/></g></g><g><g><path fill="#FFF" d="M343.389,221.562l-52.961-52.961c-16.063-16.058-42.198-16.06-58.258,0l-63.556,63.555 c-16.061,16.061-16.061,42.195,0,58.258l52.961,52.961c2.195,2.195,5.071,3.291,7.945,3.291s5.751-1.098,7.945-3.291 c4.388-4.386,4.388-11.5,0-15.888l-52.961-52.961c-7.301-7.301-7.301-19.18,0-26.481l63.555-63.555 c7.301-7.303,19.18-7.3,26.481,0l52.96,52.961c7.301,7.301,7.301,19.18,0,26.481l-63.555,63.555c-4.388,4.386-4.388,11.5,0,15.888 c4.388,4.388,11.5,4.388,15.889,0l63.555-63.555C359.45,263.757,359.45,237.623,343.389,221.562z"/></g></g><g><g><circle cx="123.599" cy="293.065" r="11.235" fill="#FFF"/></g></g><g><g><circle cx="155.373" cy="324.838" r="11.235" fill="#FFF"/></g></g><g><g><circle cx="187.158" cy="356.61" r="11.235" fill="#FFF"/></g></g><g><g><circle cx="293.08" cy="123.584" r="11.235" fill="#FFF"/></g></g><g><g><circle cx="324.85" cy="155.361" r="11.235" fill="#FFF"/></g></g><g><g><circle cx="356.625" cy="187.143" r="11.235" fill="#FFF"/></g></g><g><g><circle cx="388.412" cy="218.915" r="11.235" fill="#FFF"/></g></g><g><g><circle cx="324.853" cy="91.811" r="11.235" fill="#FFF"/></g></g><g><g><circle cx="356.625" cy="123.584" r="11.235" fill="#FFF"/></g></g><g><g><circle cx="388.405" cy="155.361" r="11.235" fill="#FFF"/></g></g><g><g><circle cx="420.182" cy="187.138" r="11.235" fill="#FFF"/></g></g><g><g><circle cx="356.627" cy="60.031" r="11.235" fill="#FFF"/></g></g><g><g><circle cx="388.412" cy="91.811" r="11.235" fill="#FFF"/></g></g><g><g><circle cx="420.182" cy="123.584" r="11.235" fill="#FFF"/></g></g><g><g><circle cx="451.959" cy="155.361" r="11.235" fill="#FFF"/></g></g><g><g><circle cx="60.039" cy="356.61" r="11.235" fill="#FFF"/></g></g><g><g><circle cx="91.82" cy="388.392" r="11.235" fill="#FFF"/></g></g><g><g><circle cx="123.599" cy="420.169" r="11.235" fill="#FFF"/></g></g><g><g><circle cx="155.371" cy="451.941" r="11.235" fill="#FFF"/></g></g><g><g><circle cx="60.039" cy="420.169" r="11.235" fill="#FFF"/></g></g><g><g><circle cx="91.82" cy="451.947" r="11.235" fill="#FFF"/></g></g><g><g><circle cx="91.818" cy="324.838" r="11.235" fill="#FFF"/></g></g><g><g><circle cx="123.599" cy="356.61" r="11.235" fill="#FFF"/></g></g><g><g><circle cx="155.371" cy="388.397" r="11.235" fill="#FFF"/></g></g><g><g><circle cx="187.158" cy="420.169" r="11.235" fill="#FFF"/></g></g><g><g><circle cx="420.182" cy="60.031" r="11.235" fill="#FFF"/></g></g><g><g><circle cx="451.956" cy="91.811" r="11.235" fill="#FFF"/></g></g><g><g><circle cx="218.93" cy="388.397" r="11.235" fill="#FFF"/></g></g></svg>