<svg xmlns="http://www.w3.org/2000/svg" width="640" height="640" viewBox="0 0 480 480.753"><path fill="#ffd782" d="m32.734375 32.359375c37.554687-37.558594 98.445313-37.558594 136 0l280 279.996094c37.554687 37.554687 37.554687 98.445312 0 136.003906-37.558594 37.554687-98.445313 37.554687-136.003906 0l-279.996094-280c-37.554687-37.554687-37.554687-98.445313 0-136zm0 0"/><path fill="#d3843d" d="m32.738281 448.359375c37.488281 37.488281 106.511719 29.488281 144-8l264-264c37.488281-37.484375 45.488281-106.511719 8-144-37.488281-37.484375-106.511719-29.484375-144 8l-264 264c-37.488281 37.488281-45.488281 106.515625-8 144zm0 0"/><g fill="#995623"><path d="m264.738281 192.359375c0 13.257813-10.746093 24-24 24-13.253906 0-24-10.742187-24-24 0-13.253906 10.746094-24 24-24 13.253907 0 24 10.746094 24 24zm0 0"/><path d="m264.738281 288.359375c0 13.257813-10.746093 24-24 24-13.253906 0-24-10.742187-24-24 0-13.253906 10.746094-24 24-24 13.253907 0 24 10.746094 24 24zm0 0"/><path d="m328.738281 240.359375c0 13.257813-10.746093 24-24 24-13.253906 0-24-10.742187-24-24 0-13.253906 10.746094-24 24-24 13.253907 0 24 10.746094 24 24zm0 0"/><path d="m200.738281 240.359375c0 13.257813-10.746093 24-24 24-13.253906 0-24-10.742187-24-24 0-13.253906 10.746094-24 24-24 13.253907 0 24 10.746094 24 24zm0 0"/></g><path fill="#d3843d" d="m75.082031 174.015625c-58.265625-58.261719-41.175781-106.132813-24-123.308594l11.3125 11.308594-5.65625-5.65625 5.695313 5.601563c-1.542969 1.601562-37.152344 39.617187 24 100.726562zm0 0"/><path fill="#d3843d" d="m430.953125 429.394531-12.457031-10.042969c1.394531-1.742187 33.449218-43.359374-16.519532-93.335937l11.3125-11.308594c60.402344 60.390625 18.097657 114.148438 17.664063 114.6875zm0 0"/><path fill="#995623" d="m83.078125 298.699219 16-15.996094 11.3125 11.3125-15.996094 16zm0 0"/><path fill="#995623" d="m51.078125 330.699219 16-15.996094 11.3125 11.3125-15.996094 15.996094zm0 0"/><path fill="#995623" d="m403.082031 154.707031 15.996094-15.996093 11.316406 11.3125-16 15.996093zm0 0"/><path fill="#995623" d="m371.082031 186.707031 15.996094-16 11.316406 11.316407-16 15.996093zm0 0"/><path d="m454.394531 26.707031c-42.160156-42.152343-116.761719-30.554687-155.3125 8l-58.34375 58.34375-58.34375-58.34375c-38.542969-38.546875-113.160156-50.160156-155.3125-8-42.152343 42.15625-30.542969 116.796875 8 155.308594l58.34375 58.34375-58.34375 58.347656c-38.542969 38.542969-50.160156 113.15625-8 155.308594 18.410157 17.746094 43.171875 27.367187 68.734375 26.707031 32.246094-.019531 63.246094-12.449218 86.578125-34.707031l58.34375-58.34375 58.34375 58.34375c23.328125 22.261719 54.332031 34.6875 86.574219 34.707031 25.566406.660156 50.324219-8.957031 68.738281-26.707031 42.160157-42.152344 30.542969-116.796875-8-155.308594l-58.34375-58.347656 58.34375-58.34375c38.542969-38.542969 50.160157-113.160156 8-155.308594zm-408 144c-33.199219-33.210937-43.679687-97.011719-8-132.691406 35.679688-35.679687 99.472657-25.207031 132.6875 8l58.34375 58.34375-124.6875 124.691406zm388.6875 139.308594c33.199219 33.210937 43.679688 97.007813 8 132.691406-35.679687 35.679688-99.480469 25.199219-132.6875-8l-58.34375-58.347656 124.6875-124.6875zm-264 124.691406c-33.199219 33.207031-97 43.6875-132.6875 8-35.6875-35.691406-25.199219-99.480469 8-132.691406l264-264c20.214844-19.351563 47.09375-30.195313 75.078125-30.285156 21.410156-.582031 42.160156 7.445312 57.601563 22.285156 35.679687 35.679687 25.199219 99.480469-8 132.691406zm0 0"/><path d="m240.738281 224.359375c17.671875 0 32-14.324219 32-32 0-17.671875-14.328125-32-32-32s-32 14.328125-32 32c0 17.675781 14.328125 32 32 32zm0-48c8.835938 0 16 7.164063 16 16 0 8.839844-7.164062 16-16 16-8.835937 0-16-7.160156-16-16 0-8.835937 7.164063-16 16-16zm0 0"/><path d="m240.738281 256.359375c-17.671875 0-32 14.328125-32 32 0 17.675781 14.328125 32 32 32s32-14.324219 32-32c0-17.671875-14.328125-32-32-32zm0 48c-8.835937 0-16-7.160156-16-16 0-8.835937 7.164063-16 16-16 8.835938 0 16 7.164063 16 16 0 8.839844-7.164062 16-16 16zm0 0"/><path d="m304.738281 208.359375c-17.671875 0-32 14.328125-32 32 0 17.675781 14.328125 32 32 32s32-14.324219 32-32c0-17.671875-14.328125-32-32-32zm0 48c-8.835937 0-16-7.160156-16-16 0-8.835937 7.164063-16 16-16 8.835938 0 16 7.164063 16 16 0 8.839844-7.164062 16-16 16zm0 0"/><path d="m176.738281 208.359375c-17.671875 0-32 14.328125-32 32 0 17.675781 14.328125 32 32 32s32-14.324219 32-32c0-17.671875-14.328125-32-32-32zm0 48c-8.835937 0-16-7.160156-16-16 0-8.835937 7.164063-16 16-16 8.835938 0 16 7.164063 16 16 0 8.839844-7.164062 16-16 16zm0 0"/><path d="m62.433594 61.960938-5.695313-5.601563-5.65625-5.652344c-17.175781 17.175781-34.265625 65.046875 24 123.308594l11.3125-11.308594c-61.113281-61.113281-25.503906-99.144531-23.960937-100.746093zm0 0"/><path d="m418.496094 419.351562 12.457031 10.042969c.433594-.539062 42.738281-54.296875-17.664063-114.6875l-11.3125 11.308594c49.960938 49.976563 17.914063 91.59375 16.519532 93.335937zm0 0"/><path d="m83.078125 298.699219 16-15.996094 11.3125 11.3125-15.996094 16zm0 0"/><path d="m51.078125 330.699219 16-15.996094 11.3125 11.3125-15.996094 15.996094zm0 0"/><path d="m403.082031 154.707031 15.996094-15.996093 11.316406 11.3125-16 15.996093zm0 0"/><path d="m371.082031 186.707031 15.996094-16 11.316406 11.316407-16 15.996093zm0 0"/></svg>