<?xml version="1.0" encoding="utf-8"?>
<!-- Generator: Adobe Illustrator 22.1.0, SVG Export Plug-In . SVG Version: 6.00 Build 0)  -->
<svg version="1.1" id="Christmas_Icon" xmlns="http://www.w3.org/2000/svg" xmlns:xlink="http://www.w3.org/1999/xlink" x="0px"
	 y="0px" viewBox="0 0 56 56" style="enable-background:new 0 0 56 56;" xml:space="preserve">
<style type="text/css">
	.st0{fill:#F5F5F5;stroke:#3E2723;stroke-linecap:round;stroke-linejoin:round;stroke-miterlimit:10;}
	.st1{fill:none;stroke:#339B78;stroke-linecap:round;stroke-linejoin:round;stroke-miterlimit:10;}
	.st2{fill:#FFD54F;stroke:#3E2723;stroke-linecap:round;stroke-linejoin:round;stroke-miterlimit:10;}
	.st3{fill:#FFA000;}
	.st4{fill:none;stroke:#3E2723;stroke-linecap:round;stroke-linejoin:round;stroke-miterlimit:10;}
</style>
<g id="Star">
	<path class="st0" d="M28.6,2c-3.3,0-6,2.7-6,6s2.7,6,6,6s6-2.7,6-6S31.9,2,28.6,2z M28.6,11c-1.7,0-3-1.3-3-3s1.3-3,3-3s3,1.3,3,3
		S30.2,11,28.6,11z"/>
	<line class="st1" x1="10.6" y1="12.2" x2="16.6" y2="18.2"/>
	<line class="st1" x1="46.6" y1="12.2" x2="40.6" y2="18.2"/>
	<line class="st1" x1="51.6" y1="45.2" x2="45.6" y2="39.2"/>
	<line class="st1" x1="5.6" y1="45.2" x2="11.6" y2="39.2"/>
	<path class="st2" d="M31,11.2l4.9,10.4c0.4,0.8,1.1,1.4,2,1.5l10.5,1.6c2.2,0.3,3,3.2,1.3,4.6l-7.2,6.2c-0.7,0.6-1,1.5-0.9,2.4
		L43.4,51c0.3,2.3-2.2,3.9-4.1,2.6l-9.2-6.3c-0.9-0.6-2.1-0.6-3,0l-9.2,6.3c-1.9,1.3-4.5-0.3-4.1-2.6l1.9-13.1
		c0.1-0.9-0.2-1.8-0.9-2.4l-7.2-6.2c-1.7-1.5-0.9-4.3,1.3-4.6L19.3,23c0.9-0.1,1.6-0.7,2-1.5l4.9-10.4C27.1,9.1,30,9.1,31,11.2z"/>
	<g>
		<path class="st3" d="M41.9,53.1c0.6-0.4,1.1-1.1,1-2.1L41,37.9c-0.2-1.1,0.2-2.2,1.1-2.9l7.2-6.2c0.6-0.5,0.9-1.4,0.7-2.2
			c0-0.1-0.1-0.1-0.1-0.2l-21.3,5L41.9,53.1z"/>
	</g>
	<g>
		<line class="st4" x1="28.6" y1="31.5" x2="28.6" y2="16.5"/>
		<polyline class="st4" points="19.3,46.5 28.6,31.5 37.8,46.5 		"/>
		<polyline class="st4" points="43.6,28 28.6,31.5 13.6,28 		"/>
	</g>
</g>
</svg>
