<svg xmlns="http://www.w3.org/2000/svg" xmlns:xlink="http://www.w3.org/1999/xlink" id="Capa_1" x="0" y="0" version="1.1" viewBox="0 0 205 296.8" xml:space="preserve" style="enable-background:new 0 0 205 296.8"><style type="text/css">.st0{fill:#fff}.st1{display:none}</style><g><path d="M55.1,110.8l6.5,17.7c0.2,0.7,0.9,1.1,1.6,1.1s1.3-0.4,1.6-1.1l6.5-17.7c5.3-14.4,16.6-25.7,31-31l17.7-6.5 c0.7-0.2,1.1-0.9,1.1-1.6s-0.4-1.3-1.1-1.6l-17.7-6.5c-14.4-5.3-25.7-16.6-31-31l-6.5-17.7c-0.2-0.7-0.9-1.1-1.6-1.1 s-1.3,0.4-1.6,1.1l-6.5,17.7c-5.3,14.4-16.6,25.7-31,31L6.4,70c-0.7,0.2-1.1,0.9-1.1,1.6s0.4,1.3,1.1,1.6l17.7,6.5 C38.5,85.1,49.8,96.4,55.1,110.8z" class="st0"/><path d="M198.9,185.7l-17.7-6.5c-14.4-5.3-25.7-16.6-31-31l-6.5-17.7c-0.2-0.7-0.9-1.1-1.6-1.1s-1.3,0.4-1.6,1.1 l-6.5,17.7c-5.3,14.4-16.6,25.7-31,31l-17.7,6.5c-0.7,0.2-1.1,0.9-1.1,1.6s0.4,1.3,1.1,1.6l17.7,6.5c14.4,5.3,25.7,16.6,31,31 l6.5,17.7c0.2,0.7,0.9,1.1,1.6,1.1s1.3-0.4,1.6-1.1l6.5-17.7c5.3-14.4,16.6-25.7,31-31l17.7-6.5c0.7-0.2,1.1-0.9,1.1-1.6 C200.1,186.6,199.6,185.9,198.9,185.7z" class="st0"/><path d="M290.8,109.8l-12.1-4.4c-9.8-3.6-17.5-11.3-21.1-21.1l-4.4-12.1c-0.2-0.5-0.6-0.8-1.1-0.8 c-0.5,0-0.9,0.3-1.1,0.8l-4.4,12.1c-3.6,9.8-11.3,17.5-21.1,21.1l-12.1,4.4c-0.5,0.2-0.8,0.6-0.8,1.1s0.3,0.9,0.8,1.1l12.1,4.4 c9.8,3.6,17.5,11.3,21.1,21.1l4.4,12.1c0.2,0.5,0.6,0.8,1.1,0.8c0.5,0,0.9-0.3,1.1-0.8l4.4-12.1c3.6-9.8,11.3-17.5,21.1-21.1 l12.1-4.4c0.5-0.2,0.8-0.6,0.8-1.1S291.2,110,290.8,109.8z" class="st1"/><path d="M261.6,268.6l-8.4-3.1c-6.8-2.5-12.2-7.9-14.7-14.7l-3.1-8.4c-0.1-0.3-0.4-0.5-0.8-0.5s-0.6,0.2-0.8,0.5 l-3.1,8.4c-2.5,6.8-7.9,12.2-14.7,14.7l-8.4,3.1c-0.3,0.1-0.5,0.4-0.5,0.8s0.2,0.6,0.5,0.8l8.4,3.1c6.8,2.5,12.2,7.9,14.7,14.7 l3.1,8.4c0.1,0.3,0.4,0.5,0.8,0.5s0.6-0.2,0.8-0.5l3.1-8.4c2.5-6.8,7.9-12.2,14.7-14.7l8.4-3.1c0.3-0.1,0.5-0.4,0.5-0.8 S261.9,268.7,261.6,268.6z" class="st1"/><path d="M199.5,26.7l-8.4-3.1c-6.8-2.5-12.2-7.9-14.7-14.7l-3.1-8.4c-0.1-0.3-0.4-0.5-0.8-0.5s-0.6,0.2-0.8,0.5 l-3.1,8.4c-2.5,6.8-7.9,12.2-14.7,14.7l-8.4,3.1c-0.3,0.1-0.5,0.4-0.5,0.8s0.2,0.6,0.5,0.8l8.4,3.1c6.8,2.5,12.2,7.9,14.7,14.7 l3.1,8.4c0.1,0.3,0.4,0.5,0.8,0.5s0.6-0.2,0.8-0.5l3.1-8.4c2.5-6.8,7.9-12.2,14.7-14.7l8.4-3.1c0.3-0.1,0.5-0.4,0.5-0.8 C200.1,27.1,199.9,26.8,199.5,26.7z" class="st1"/><path d="M96.4,251.3l-10.6-3.9c-8.6-3.2-15.3-9.9-18.5-18.5l-3.9-10.6c-0.1-0.4-0.5-0.7-1-0.7s-0.8,0.3-1,0.7 l-3.9,10.6c-3.2,8.6-9.9,15.3-18.5,18.5l-10.6,3.9c-0.4,0.1-0.7,0.5-0.7,0.9s0.3,0.8,0.7,0.9l10.6,3.9c8.6,3.2,15.3,9.9,18.5,18.5 l3.9,10.6c0.1,0.4,0.5,0.7,1,0.7s0.8-0.3,1-0.7l3.9-10.6c3.2-8.6,9.9-15.3,18.5-18.5l10.6-3.9c0.4-0.1,0.7-0.5,0.7-0.9 S96.8,251.4,96.4,251.3z" class="st0"/></g></svg>